<?xml version="1.0" standalone="no"?>
<!DOCTYPE svg PUBLIC "-//W3C//DTD SVG 20010904//EN"
 "http://www.w3.org/TR/2001/REC-SVG-20010904/DTD/svg10.dtd">
<svg version="1.0" xmlns="http://www.w3.org/2000/svg"
 width="110.000000pt" height="110.000000pt" viewBox="0 0 110.000000 110.000000"
 preserveAspectRatio="xMidYMid meet">
<metadata>
Created by potrace 1.14, written by Peter Selinger 2001-2017
</metadata>
<g transform="translate(0.000000,110.000000) scale(0.100000,-0.100000)"
fill="#000000" stroke="none">
<path d="M905 1080 c-96 -21 -231 -50 -264 -56 -12 -3 -53 -12 -90 -20 -36 -9
-77 -18 -91 -20 -130 -22 -219 -50 -221 -68 -1 -6 -3 -90 -4 -186 -1 -96 -3
-178 -4 -182 0 -5 -11 -8 -23 -8 -44 -1 -181 -38 -189 -52 -5 -7 -9 -109 -9
-226 0 -193 2 -213 18 -219 9 -4 23 -15 30 -24 7 -11 21 -16 35 -14 12 3 119
25 237 51 118 25 278 59 355 75 101 21 144 34 156 48 13 16 16 48 15 192 -1
200 -7 189 113 210 117 20 112 9 112 252 0 203 -6 248 -32 231 -5 -3 -9 1 -9
9 0 15 -22 28 -43 26 -7 -1 -48 -9 -92 -19z"/>
</g>
</svg>
