<?xml version="1.0" standalone="no"?>
<!DOCTYPE svg PUBLIC "-//W3C//DTD SVG 20010904//EN"
 "http://www.w3.org/TR/2001/REC-SVG-20010904/DTD/svg10.dtd">
<svg version="1.0" xmlns="http://www.w3.org/2000/svg"
 width="425.000000pt" height="425.000000pt" viewBox="0 0 425.000000 425.000000"
 preserveAspectRatio="xMidYMid meet">
<metadata>
Created by potrace 1.14, written by Peter Selinger 2001-2017
</metadata>
<g transform="translate(0.000000,425.000000) scale(0.100000,-0.100000)"
fill="#000000" stroke="none">
<path d="M1436 2989 c-461 -115 -845 -214 -852 -220 -9 -8 -14 -34 -14 -79 0
-83 6 -100 34 -100 11 0 143 31 292 69 186 46 277 65 288 59 14 -8 16 -58 16
-492 0 -375 -3 -486 -12 -494 -7 -5 -139 -42 -293 -81 -154 -39 -290 -76 -303
-81 -20 -9 -22 -16 -22 -89 0 -55 4 -82 14 -90 11 -9 286 55 1232 289 671 165
1229 304 1242 310 20 9 22 16 22 94 0 55 -4 87 -12 94 -9 7 -247 -47 -826
-190 -447 -110 -819 -197 -827 -194 -13 5 -15 72 -13 498 l3 492 448 111 c291
71 451 115 457 125 16 26 12 146 -6 164 -8 9 -18 16 -22 15 -4 0 -385 -95
-846 -210z"/>
<path d="M2730 2707 c-487 -122 -891 -226 -898 -230 -18 -12 -16 -151 3 -170
18 -18 -85 -41 860 193 402 99 741 179 755 178 l25 -3 3 -487 c2 -456 1 -488
-15 -496 -10 -5 -331 -87 -713 -182 -382 -95 -701 -177 -707 -183 -10 -7 -13
-78 -13 -294 0 -252 2 -284 16 -290 27 -10 163 26 174 47 6 10 10 99 10 199 0
162 2 181 18 189 9 5 330 87 712 182 382 95 701 177 708 183 9 7 12 154 10
696 l-3 686 -30 2 c-16 1 -428 -98 -915 -220z"/>
</g>
</svg>
