<svg width="501" height="108" viewBox="0 0 501 108" fill="none" xmlns="http://www.w3.org/2000/svg">
<path d="M120.834 83.9762C115.919 83.9762 111.619 83.1214 107.932 81.4119C104.3 79.649 101.255 77.3251 98.7971 74.4402C96.3397 71.502 94.4966 68.2165 93.2679 64.5837C92.0392 60.951 91.4248 57.2381 91.4248 53.4451C91.4248 49.7055 92.0392 46.0194 93.2679 42.3866C94.4966 38.7539 96.3397 35.4951 98.7971 32.6103C101.255 29.672 104.3 27.3481 107.932 25.6386C111.619 23.9291 115.919 23.0743 120.834 23.0743C124.948 23.0743 128.447 23.6085 131.332 24.677C134.27 25.692 136.701 27.0276 138.624 28.6837C140.6 30.2864 142.176 32.0226 143.352 33.8924C144.58 35.7088 145.489 37.445 146.076 39.1011C146.664 40.7038 147.038 42.0394 147.198 43.1078C147.412 44.1229 147.519 44.6304 147.519 44.6304H135.258C135.258 44.6304 135.151 44.2831 134.938 43.5886C134.777 42.8407 134.43 41.9592 133.896 40.9442C133.362 39.8758 132.56 38.834 131.492 37.819C130.477 36.8039 129.088 35.9492 127.325 35.2547C125.615 34.5068 123.478 34.1328 120.914 34.1328C117.228 34.1328 114.129 35.0944 111.619 37.0176C109.161 38.8874 107.291 41.2915 106.009 44.2297C104.78 47.1679 104.166 50.2398 104.166 53.4451C104.166 56.6505 104.78 59.749 106.009 62.7407C107.291 65.6789 109.161 68.1096 111.619 70.0329C114.129 71.9027 117.228 72.8376 120.914 72.8376C123.478 72.8376 125.615 72.4903 127.325 71.7958C129.088 71.1013 130.477 70.2466 131.492 69.2315C132.56 68.1631 133.362 67.1213 133.896 66.1063C134.43 65.0378 134.777 64.1564 134.938 63.4619C135.151 62.7674 135.258 62.4201 135.258 62.4201H147.519C147.519 62.4201 147.412 62.9544 147.198 64.0228C147.038 65.0378 146.664 66.3734 146.076 68.0295C145.489 69.6322 144.58 71.3684 143.352 73.2382C142.176 75.0546 140.6 76.7908 138.624 78.4469C136.701 80.0496 134.27 81.3852 131.332 82.4536C128.447 83.4687 124.948 83.9762 120.834 83.9762Z" fill="#4F5B7A"/>
<path d="M151.788 83.1748V22.273H163.968V83.1748H151.788Z" fill="#4F5B7A"/>
<path d="M187.305 39.9025C190.03 39.9025 192.273 40.3566 194.036 41.2647C195.799 42.1195 197.135 43.0544 198.043 44.0694C199.005 45.0845 199.592 45.779 199.806 46.1529H200.447V40.7038H212.628V83.1748H200.447V77.7257H199.806C199.592 78.0997 199.005 78.7942 198.043 79.8092C197.135 80.8242 195.799 81.7859 194.036 82.694C192.273 83.5488 190.03 83.9762 187.305 83.9762C184.153 83.9762 181.402 83.3618 179.051 82.1331C176.754 80.851 174.831 79.1681 173.282 77.0847C171.732 74.9478 170.557 72.5704 169.756 69.9527C169.008 67.335 168.634 64.6639 168.634 61.9393C168.634 59.2148 169.008 56.5436 169.756 53.9259C170.557 51.3082 171.732 48.9576 173.282 46.8741C174.831 44.7372 176.754 43.0544 179.051 41.8257C181.402 40.5435 184.153 39.9025 187.305 39.9025ZM190.831 49.7589C188.641 49.7589 186.798 50.3733 185.302 51.602C183.859 52.7773 182.764 54.2999 182.016 56.1697C181.322 58.0395 180.975 59.9627 180.975 61.9393C180.975 63.916 181.322 65.8392 182.016 67.709C182.764 69.5788 183.859 71.128 185.302 72.3568C186.798 73.532 188.641 74.1197 190.831 74.1197C193.021 74.1197 194.838 73.532 196.28 72.3568C197.776 71.128 198.871 69.5788 199.566 67.709C200.314 65.8392 200.688 63.916 200.688 61.9393C200.688 59.9627 200.314 58.0395 199.566 56.1697C198.871 54.2999 197.776 52.7773 196.28 51.602C194.838 50.3733 193.021 49.7589 190.831 49.7589Z" fill="#4F5B7A"/>
<path d="M217.532 83.1748V40.7038H229.632V46.8741H230.033C230.514 45.7522 231.181 44.6571 232.036 43.5886C232.891 42.5202 234.066 41.6387 235.562 40.9442C237.058 40.2497 238.981 39.9025 241.332 39.9025C242.507 39.9025 243.442 39.9826 244.137 40.1429C244.831 40.2497 245.178 40.3031 245.178 40.3031V52.3232C245.178 52.3232 244.778 52.2431 243.976 52.0828C243.228 51.9226 242.24 51.8424 241.011 51.8424C237.218 51.8424 234.387 52.8842 232.517 54.9677C230.647 56.9977 229.712 60.3366 229.712 64.9844V83.1748H217.532Z" fill="#4F5B7A"/>
<path d="M255.787 34.9341C253.65 34.9341 251.913 34.2664 250.578 32.9308C249.242 31.5418 248.575 29.9124 248.575 28.0426C248.575 26.066 249.242 24.4099 250.578 23.0743C251.913 21.6853 253.65 20.9908 255.787 20.9908C257.817 20.9908 259.526 21.6853 260.915 23.0743C262.304 24.4099 262.999 26.066 262.999 28.0426C262.999 29.9124 262.304 31.5418 260.915 32.9308C259.526 34.2664 257.817 34.9341 255.787 34.9341ZM249.696 83.1748V40.7038H261.877V83.1748H249.696Z" fill="#4F5B7A"/>
<path d="M287.672 83.9762C284.36 83.9762 281.715 83.4954 279.739 82.5338C277.762 81.5187 276.266 80.2633 275.251 78.7675C274.236 77.2182 273.568 75.5888 273.248 73.8793C272.927 72.1698 272.767 70.5938 272.767 69.1514V50.4H265.555V40.7038H272.767V30.2062H284.947V40.7038H294.002V50.4H284.947V68.8309C284.947 70.5938 285.401 71.9561 286.31 72.9177C287.271 73.8793 288.847 74.3601 291.037 74.3601C291.999 74.3601 292.881 74.28 293.682 74.1197C294.483 73.9594 294.884 73.8793 294.884 73.8793V83.255C294.884 83.255 294.163 83.3618 292.72 83.5755C291.278 83.8426 289.595 83.9762 287.672 83.9762Z" fill="#4F5B7A"/>
<path d="M301.741 98.801C300.299 98.801 299.15 98.7476 298.295 98.6407C297.44 98.5339 297.013 98.4805 297.013 98.4805V88.7041C297.013 88.7041 297.36 88.7308 298.055 88.7842C298.803 88.8377 299.711 88.8644 300.779 88.8644C303.344 88.8644 305.454 88.4904 307.11 87.7425C308.766 87.048 310.208 85.659 311.437 83.5755L295.731 40.7038H307.911L317.768 69.4719L327.384 40.7038H339.644L324.419 81.492C323.03 85.3919 321.347 88.624 319.37 91.1882C317.447 93.7525 315.07 95.649 312.239 96.8778C309.407 98.1599 305.908 98.801 301.741 98.801Z" fill="#4F5B7A"/>
<path d="M346.671 83.1748V50.4H339.939V40.7038H346.671V37.3382C346.671 35.7889 346.884 34.1061 347.312 32.2897C347.739 30.4734 348.487 28.7371 349.555 27.081C350.677 25.4249 352.226 24.0893 354.203 23.0743C356.18 22.0059 358.717 21.4716 361.816 21.4716C363.525 21.4716 364.914 21.6052 365.983 21.8723C367.105 22.086 367.666 22.1928 367.666 22.1928V30.7672C367.666 30.7672 367.345 30.7138 366.704 30.6069C366.063 30.5001 365.395 30.4466 364.701 30.4466C362.51 30.4466 360.988 31.0877 360.133 32.3699C359.278 33.652 358.851 35.3081 358.851 37.3382V40.7038H367.425V50.4H358.851V83.1748H346.671Z" fill="#4F5B7A"/>
<path d="M370.885 83.1748V22.273H383.066V83.1748H370.885Z" fill="#4F5B7A"/>
<path d="M410.009 83.9762C405.254 83.9762 401.221 82.9612 397.909 80.9311C394.597 78.8476 392.059 76.1498 390.296 72.8376C388.586 69.4719 387.732 65.8392 387.732 61.9393C387.732 58.0395 388.586 54.4334 390.296 51.1212C392.059 47.7556 394.597 45.0578 397.909 43.0277C401.221 40.9442 405.254 39.9025 410.009 39.9025C414.764 39.9025 418.797 40.9442 422.109 43.0277C425.421 45.0578 427.932 47.7556 429.642 51.1212C431.405 54.4334 432.286 58.0395 432.286 61.9393C432.286 65.8392 431.405 69.4719 429.642 72.8376C427.932 76.1498 425.421 78.8476 422.109 80.9311C418.797 82.9612 414.764 83.9762 410.009 83.9762ZM410.009 74.0396C412.146 74.0396 413.936 73.4786 415.378 72.3568C416.874 71.2349 418.022 69.7658 418.824 67.9494C419.625 66.0796 420.026 64.0762 420.026 61.9393C420.026 59.749 419.625 57.7456 418.824 55.9293C418.022 54.1129 416.874 52.6438 415.378 51.5219C413.936 50.4 412.146 49.8391 410.009 49.8391C407.872 49.8391 406.056 50.4 404.56 51.5219C403.064 52.6438 401.915 54.1129 401.114 55.9293C400.366 57.7456 399.992 59.749 399.992 61.9393C399.992 64.0762 400.366 66.0796 401.114 67.9494C401.915 69.7658 403.064 71.2349 404.56 72.3568C406.056 73.4786 407.872 74.0396 410.009 74.0396Z" fill="#4F5B7A"/>
<path d="M444.854 83.1748L431.712 40.7038H443.892L451.505 68.2699L459.759 40.7038H470.818L479.071 68.2699L486.684 40.7038H498.864L485.722 83.1748H472.821L465.288 58.3333L457.756 83.1748H444.854Z" fill="#4F5B7A"/>
<path fill-rule="evenodd" clip-rule="evenodd" d="M67.6513 19.8364C67.5756 12.3469 60.4556 6.9405 53.2209 8.87902L40.2368 12.3581C35.1346 13.7252 31.5809 18.341 31.5638 23.6232V23.6232C31.5466 28.9053 27.9929 33.5212 22.8907 34.8883L9.11491 38.5795C4.11642 39.9188 0.634923 44.4408 0.618139 49.6156V49.6156C0.59364 57.1688 7.75319 62.681 15.0491 60.7261L22.7239 58.6696C27.1467 57.4845 31.4869 60.8261 31.4721 65.4049V65.4049C31.4619 68.542 29.3514 71.2832 26.3212 72.0952L9.19195 76.6849C4.19347 78.0243 0.711971 82.5463 0.695187 87.721V87.721C0.670688 95.2743 7.83023 100.786 15.1261 98.8315L28.2731 95.3088C33.3268 93.9547 36.8103 89.3349 36.7223 84.1037V84.1037C36.6343 78.8725 40.1178 74.2528 45.1715 72.8987L59.0752 69.1732C64.1287 67.8191 67.6243 63.2155 67.5714 57.984V57.984C67.4957 50.4945 60.3757 45.0881 53.141 47.0266L45.4923 49.0761C41.1251 50.2463 36.821 47.0007 36.745 42.4801V42.4801C36.6913 39.2916 38.8146 36.4758 41.8949 35.6504L59.1551 31.0256C64.2086 29.6715 67.7042 25.0679 67.6513 19.8364V19.8364Z" fill="#4F5B7A"/>
</svg>
