<svg width="751" height="148" viewBox="0 0 751 148" fill="none" xmlns="http://www.w3.org/2000/svg">
<rect y="14" width="120" height="120" rx="10" fill="#872AE8"/>
<path d="M52.6263 54.9384V54.9384C51.2515 57.801 46.6 57.7239 45.5774 54.7175C45.3799 54.137 45.1779 53.56 44.9709 52.9877C44.6521 52.1062 44.6613 51.1338 45.0513 50.2814C45.1812 49.9977 45.313 49.7166 45.4469 49.4379C48.7019 42.6821 53.5581 37 61 37C68.4419 37 73.2981 42.6821 76.5662 49.4545C79.69 55.9295 81.8556 64.3536 83.8112 72.0013L83.9031 72.3812C85.9769 80.4915 87.8669 87.7594 90.4262 93.0616C92.8937 98.1821 95.4662 100.429 98.8 100.429V100.429C101.12 100.429 103 102.309 103 104.629V106.8C103 109.12 101.12 111 98.8 111V111C91.3581 111 86.5019 105.318 83.2337 98.5455C80.11 92.0705 77.9444 83.6464 75.9887 75.9987L75.8969 75.6187C73.8231 67.5085 71.9331 60.2406 69.3737 54.9384C66.9062 49.8179 64.3337 47.5714 61 47.5714C57.6662 47.5714 55.0937 49.8179 52.6263 54.9384ZM39.74 96.3785C39.7417 96.3764 39.745 96.3784 39.744 96.3809C39.431 97.1187 39.1051 97.8403 38.7662 98.5455C35.4981 105.318 30.6419 111 23.2 111V111C20.8804 111 19 109.12 19 106.8V104.629C19 102.309 20.8804 100.429 23.2 100.429V100.429C26.5337 100.429 29.1063 98.1821 31.5737 93.0616C31.7829 92.6262 31.9876 92.1779 32.1883 91.7173C33.292 89.1854 37.3025 89.2526 38.1562 91.8795C38.6514 93.403 39.1763 94.9097 39.7361 96.3779C39.7367 96.3796 39.7389 96.3799 39.74 96.3785V96.3785ZM69.3803 93.0616C69.3843 93.0616 69.388 93.0593 69.3897 93.0557C69.6252 92.5651 69.8551 92.0582 70.0801 91.5359C71.1508 89.0498 75.0762 89.1157 75.9084 91.6914C76.2698 92.8098 76.6471 93.9196 77.0422 95.0123C77.361 95.8938 77.3518 96.8662 76.9618 97.7186C76.832 98.0023 76.7001 98.2834 76.5662 98.5621C73.2981 105.318 68.4419 111 61 111C53.5581 111 48.7019 105.318 45.4337 98.5455C42.31 92.0705 40.1444 83.6464 38.1887 75.9987L38.0969 75.6187C36.0231 67.5085 34.1331 60.2406 31.5737 54.9384C29.1063 49.8179 26.5337 47.5714 23.2 47.5714V47.5714C20.8804 47.5714 19 45.691 19 43.3714V41.2C19 38.8804 20.8804 37 23.2 37V37C30.6419 37 35.4981 42.6821 38.7662 49.4545C41.89 55.9295 44.0556 64.3536 46.0112 72.0013L46.1031 72.3812C48.1769 80.4915 50.0669 87.7594 52.6263 93.0616C55.0937 98.1821 57.6662 100.429 61 100.429C64.3324 100.429 66.9042 98.1839 69.3709 93.0676C69.3726 93.064 69.3763 93.0616 69.3803 93.0616V93.0616ZM90.4262 54.9384V54.9384C89.0515 57.801 84.4027 57.7231 83.3795 54.7169C83.182 54.1368 82.98 53.5606 82.773 52.9894C82.4531 52.1068 82.4616 51.1329 82.8523 50.2793C82.9818 49.9963 83.1133 49.7159 83.2469 49.4379C86.5019 42.6821 91.3581 37 98.8 37V37C101.12 37 103 38.8804 103 41.2V43.3714C103 45.691 101.12 47.5714 98.8 47.5714V47.5714C95.4662 47.5714 92.8937 49.8179 90.4262 54.9384Z" fill="black"/>
<path d="M178.375 117C177.458 117 176.708 116.708 176.125 116.125C175.542 115.542 175.25 114.792 175.25 113.875V32.625C175.25 31.7083 175.542 30.9583 176.125 30.375C176.708 29.7917 177.458 29.5 178.375 29.5H211.5C221.917 29.5 230.125 31.9167 236.125 36.75C242.125 41.5 245.125 48.375 245.125 57.375C245.125 63.4583 243.667 68.5417 240.75 72.625C237.833 76.7083 233.917 79.75 229 81.75L246.625 113C246.875 113.5 247 113.958 247 114.375C247 115.042 246.75 115.667 246.25 116.25C245.75 116.75 245.125 117 244.375 117H230.5C229 117 227.875 116.625 227.125 115.875C226.375 115.042 225.833 114.292 225.5 113.625L210.25 85H195.125V113.875C195.125 114.792 194.833 115.542 194.25 116.125C193.667 116.708 192.917 117 192 117H178.375ZM195.125 69.125H211.125C215.708 69.125 219.083 68.0833 221.25 66C223.5 63.9167 224.625 61 224.625 57.25C224.625 53.5 223.542 50.5417 221.375 48.375C219.208 46.2083 215.792 45.125 211.125 45.125H195.125V69.125ZM262.08 117C261.247 117 260.538 116.708 259.955 116.125C259.372 115.542 259.08 114.792 259.08 113.875V55.125C259.08 54.2083 259.372 53.4583 259.955 52.875C260.538 52.2917 261.247 52 262.08 52H274.58C275.497 52 276.247 52.2917 276.83 52.875C277.413 53.4583 277.705 54.2083 277.705 55.125V113.875C277.705 114.792 277.413 115.542 276.83 116.125C276.247 116.708 275.497 117 274.58 117H262.08ZM261.705 42C260.872 42 260.163 41.7083 259.58 41.125C258.997 40.5417 258.705 39.7917 258.705 38.875V28.875C258.705 27.9583 258.997 27.2083 259.58 26.625C260.163 25.9583 260.872 25.625 261.705 25.625H274.83C275.747 25.625 276.497 25.9583 277.08 26.625C277.747 27.2083 278.08 27.9583 278.08 28.875V38.875C278.08 39.7917 277.747 40.5417 277.08 41.125C276.497 41.7083 275.747 42 274.83 42H261.705ZM299.681 140.75C298.764 140.75 298.014 140.458 297.431 139.875C296.847 139.292 296.556 138.542 296.556 137.625V55.125C296.556 54.2083 296.847 53.4583 297.431 52.875C298.014 52.2917 298.764 52 299.681 52H311.556C312.472 52 313.222 52.2917 313.806 52.875C314.389 53.4583 314.681 54.2083 314.681 55.125V59.875C316.681 57.2083 319.264 55.0417 322.431 53.375C325.597 51.625 329.556 50.75 334.306 50.75C338.639 50.75 342.389 51.4583 345.556 52.875C348.806 54.2083 351.514 56.1667 353.681 58.75C355.931 61.25 357.639 64.2917 358.806 67.875C360.056 71.4583 360.764 75.5 360.931 80C361.014 81.5833 361.056 83.0833 361.056 84.5C361.056 85.9167 361.014 87.4583 360.931 89.125C360.847 93.375 360.181 97.2917 358.931 100.875C357.764 104.458 356.056 107.542 353.806 110.125C351.556 112.708 348.806 114.708 345.556 116.125C342.389 117.542 338.639 118.25 334.306 118.25C330.056 118.25 326.347 117.5 323.181 116C320.097 114.417 317.556 112.292 315.556 109.625V137.625C315.556 138.542 315.264 139.292 314.681 139.875C314.097 140.458 313.389 140.75 312.556 140.75H299.681ZM328.681 103.25C331.847 103.25 334.347 102.583 336.181 101.25C338.014 99.8333 339.306 98 340.056 95.75C340.889 93.5 341.389 91.0417 341.556 88.375C341.722 85.7917 341.722 83.2083 341.556 80.625C341.389 77.9583 340.889 75.5 340.056 73.25C339.306 71 338.014 69.2083 336.181 67.875C334.347 66.4583 331.847 65.75 328.681 65.75C325.597 65.75 323.097 66.4583 321.181 67.875C319.264 69.2917 317.889 71.0833 317.056 73.25C316.222 75.4167 315.722 77.75 315.556 80.25C315.472 81.75 315.431 83.2917 315.431 84.875C315.431 86.4583 315.472 88.0417 315.556 89.625C315.639 91.9583 316.139 94.1667 317.056 96.25C318.056 98.25 319.472 99.9167 321.306 101.25C323.222 102.583 325.681 103.25 328.681 103.25ZM377.439 140.75C376.523 140.75 375.773 140.458 375.189 139.875C374.606 139.292 374.314 138.542 374.314 137.625V55.125C374.314 54.2083 374.606 53.4583 375.189 52.875C375.773 52.2917 376.523 52 377.439 52H389.314C390.231 52 390.981 52.2917 391.564 52.875C392.148 53.4583 392.439 54.2083 392.439 55.125V59.875C394.439 57.2083 397.023 55.0417 400.189 53.375C403.356 51.625 407.314 50.75 412.064 50.75C416.398 50.75 420.148 51.4583 423.314 52.875C426.564 54.2083 429.273 56.1667 431.439 58.75C433.689 61.25 435.398 64.2917 436.564 67.875C437.814 71.4583 438.523 75.5 438.689 80C438.773 81.5833 438.814 83.0833 438.814 84.5C438.814 85.9167 438.773 87.4583 438.689 89.125C438.606 93.375 437.939 97.2917 436.689 100.875C435.523 104.458 433.814 107.542 431.564 110.125C429.314 112.708 426.564 114.708 423.314 116.125C420.148 117.542 416.398 118.25 412.064 118.25C407.814 118.25 404.106 117.5 400.939 116C397.856 114.417 395.314 112.292 393.314 109.625V137.625C393.314 138.542 393.023 139.292 392.439 139.875C391.856 140.458 391.148 140.75 390.314 140.75H377.439ZM406.439 103.25C409.606 103.25 412.106 102.583 413.939 101.25C415.773 99.8333 417.064 98 417.814 95.75C418.648 93.5 419.148 91.0417 419.314 88.375C419.481 85.7917 419.481 83.2083 419.314 80.625C419.148 77.9583 418.648 75.5 417.814 73.25C417.064 71 415.773 69.2083 413.939 67.875C412.106 66.4583 409.606 65.75 406.439 65.75C403.356 65.75 400.856 66.4583 398.939 67.875C397.023 69.2917 395.648 71.0833 394.814 73.25C393.981 75.4167 393.481 77.75 393.314 80.25C393.231 81.75 393.189 83.2917 393.189 84.875C393.189 86.4583 393.231 88.0417 393.314 89.625C393.398 91.9583 393.898 94.1667 394.814 96.25C395.814 98.25 397.231 99.9167 399.064 101.25C400.981 102.583 403.439 103.25 406.439 103.25ZM455.198 117C454.282 117 453.532 116.708 452.948 116.125C452.365 115.542 452.073 114.792 452.073 113.875V31.375C452.073 30.4583 452.365 29.7083 452.948 29.125C453.532 28.5417 454.282 28.25 455.198 28.25H467.698C468.532 28.25 469.24 28.5417 469.823 29.125C470.407 29.7083 470.698 30.4583 470.698 31.375V113.875C470.698 114.792 470.407 115.542 469.823 116.125C469.24 116.708 468.532 117 467.698 117H455.198ZM515.497 118.25C505.914 118.25 498.289 115.583 492.622 110.25C487.039 104.917 484.08 97.1667 483.747 87C483.747 86.3333 483.747 85.4583 483.747 84.375C483.747 83.2083 483.747 82.2917 483.747 81.625C484.08 75.2083 485.539 69.7083 488.122 65.125C490.705 60.4583 494.33 56.9167 498.997 54.5C503.664 52 509.122 50.75 515.372 50.75C522.372 50.75 528.205 52.2083 532.872 55.125C537.622 57.9583 541.164 61.875 543.497 66.875C545.914 71.7917 547.122 77.4583 547.122 83.875V86.75C547.122 87.5833 546.789 88.2917 546.122 88.875C545.539 89.4583 544.83 89.75 543.997 89.75H503.122C503.122 89.8333 503.122 90 503.122 90.25C503.122 90.4167 503.122 90.5833 503.122 90.75C503.205 93.4167 503.705 95.875 504.622 98.125C505.622 100.292 506.997 102.042 508.747 103.375C510.58 104.708 512.747 105.375 515.247 105.375C517.33 105.375 519.039 105.083 520.372 104.5C521.705 103.917 522.789 103.208 523.622 102.375C524.539 101.542 525.205 100.833 525.622 100.25C526.372 99.4167 526.955 98.9167 527.372 98.75C527.872 98.5 528.622 98.375 529.622 98.375H542.622C543.455 98.375 544.122 98.625 544.622 99.125C545.205 99.5417 545.455 100.167 545.372 101C545.289 102.333 544.58 104 543.247 106C541.997 107.917 540.122 109.833 537.622 111.75C535.122 113.583 531.997 115.125 528.247 116.375C524.58 117.625 520.33 118.25 515.497 118.25ZM503.122 78.375H527.622V78.125C527.622 75.125 527.122 72.5417 526.122 70.375C525.205 68.125 523.83 66.375 521.997 65.125C520.164 63.875 517.955 63.25 515.372 63.25C512.789 63.25 510.58 63.875 508.747 65.125C506.914 66.375 505.497 68.125 504.497 70.375C503.58 72.5417 503.122 75.125 503.122 78.125V78.375ZM561.992 117C561.076 117 560.326 116.708 559.742 116.125C559.159 115.542 558.867 114.792 558.867 113.875V99.875C558.867 98.9583 559.159 98.2083 559.742 97.625C560.326 97.0417 561.076 96.75 561.992 96.75H575.992C576.909 96.75 577.659 97.0417 578.242 97.625C578.826 98.2083 579.117 98.9583 579.117 99.875V113.875C579.117 114.792 578.826 115.542 578.242 116.125C577.659 116.708 576.909 117 575.992 117H561.992ZM601.483 117C600.567 117 599.817 116.708 599.233 116.125C598.65 115.542 598.358 114.792 598.358 113.875V66.75H588.608C587.692 66.75 586.942 66.4583 586.358 65.875C585.775 65.2917 585.483 64.5417 585.483 63.625V55.125C585.483 54.2083 585.775 53.4583 586.358 52.875C586.942 52.2917 587.692 52 588.608 52H598.358V47.5C598.358 42.1667 599.358 37.7917 601.358 34.375C603.358 30.9583 606.275 28.4583 610.108 26.875C613.942 25.2917 618.65 24.5 624.233 24.5H633.358C634.275 24.5 635.025 24.7917 635.608 25.375C636.192 25.9583 636.483 26.7083 636.483 27.625V36.125C636.483 37.0417 636.192 37.7917 635.608 38.375C635.025 38.9583 634.275 39.25 633.358 39.25H624.983C621.9 39.25 619.733 40 618.483 41.5C617.317 43 616.733 45.2083 616.733 48.125V52H632.108C633.025 52 633.775 52.2917 634.358 52.875C634.942 53.4583 635.233 54.2083 635.233 55.125V63.625C635.233 64.5417 634.942 65.2917 634.358 65.875C633.775 66.4583 633.025 66.75 632.108 66.75H616.733V113.875C616.733 114.792 616.442 115.542 615.858 116.125C615.275 116.708 614.567 117 613.733 117H601.483ZM647.7 117C646.867 117 646.159 116.708 645.575 116.125C644.992 115.542 644.7 114.792 644.7 113.875V55.125C644.7 54.2083 644.992 53.4583 645.575 52.875C646.159 52.2917 646.867 52 647.7 52H659.325C660.159 52 660.867 52.2917 661.45 52.875C662.117 53.4583 662.45 54.2083 662.45 55.125V59.375C664.117 57.0417 666.409 55.0417 669.325 53.375C672.325 51.7083 675.867 50.8333 679.95 50.75C689.617 50.5833 696.242 54.25 699.825 61.75C701.742 58.5 704.492 55.875 708.075 53.875C711.742 51.7917 715.742 50.75 720.075 50.75C724.409 50.75 728.325 51.75 731.825 53.75C735.325 55.6667 738.075 58.6667 740.075 62.75C742.159 66.75 743.2 71.9167 743.2 78.25V113.875C743.2 114.792 742.909 115.542 742.325 116.125C741.742 116.708 741.034 117 740.2 117H727.825C726.992 117 726.284 116.708 725.7 116.125C725.117 115.542 724.825 114.792 724.825 113.875V79.25C724.825 75.8333 724.325 73.1667 723.325 71.25C722.325 69.25 720.992 67.8333 719.325 67C717.742 66.1667 715.95 65.75 713.95 65.75C712.2 65.75 710.492 66.1667 708.825 67C707.242 67.8333 705.909 69.25 704.825 71.25C703.825 73.1667 703.325 75.8333 703.325 79.25V113.875C703.325 114.792 703.034 115.542 702.45 116.125C701.867 116.708 701.117 117 700.2 117H687.95C687.034 117 686.284 116.708 685.7 116.125C685.117 115.542 684.825 114.792 684.825 113.875V79.25C684.825 75.8333 684.325 73.1667 683.325 71.25C682.325 69.25 680.992 67.8333 679.325 67C677.742 66.1667 675.992 65.75 674.075 65.75C672.325 65.75 670.617 66.2083 668.95 67.125C667.284 67.9583 665.909 69.3333 664.825 71.25C663.825 73.1667 663.325 75.7917 663.325 79.125V113.875C663.325 114.792 663.034 115.542 662.45 116.125C661.867 116.708 661.159 117 660.325 117H647.7Z" fill="white"/>
</svg>
