<svg width="6719" height="882" viewBox="0 0 6719 882" fill="none" xmlns="http://www.w3.org/2000/svg">
<path d="M417.285 122.792C420.15 116.237 426.624 112 433.778 112H651.001C678.615 112 701.001 134.386 701.001 162V384.452C701.001 391.743 696.603 398.314 689.863 401.093L522.739 470.01C513.909 473.651 503.684 469.803 498.89 461.541C488.493 443.626 468.078 412.063 437.501 380.5C406.24 348.23 371.589 325.904 352.235 314.736C343.847 309.896 340.071 299.475 343.949 290.601L417.285 122.792Z" fill="#4F5B7A"/>
<path d="M0.5625 162.5C0.5625 134.886 22.9483 112.5 50.5625 112.5H323.51C336.483 112.5 345.196 125.807 340.009 137.697L283.981 266.14C280.117 274.999 269.917 279.349 260.619 276.714C239.576 270.752 199.927 262.001 151 263C98.8961 263 54.1428 275.024 27.3067 284.331C14.7301 288.693 0.5625 279.472 0.5625 266.161V162.5Z" fill="#4F5B7A"/>
<path d="M651.499 813.5C679.114 813.5 701.499 791.114 701.499 763.5V489.99C701.499 477.017 688.193 468.304 676.302 473.491L547.859 529.519C539.001 533.383 534.651 543.582 537.285 552.881C543.248 573.924 551.998 613.573 550.999 662.5C550.999 714.774 538.896 759.862 529.577 786.832C525.238 799.389 534.446 813.5 547.731 813.5H651.499Z" fill="#4F5B7A"/>
<path d="M489.001 663.5C489.001 713.498 478.015 760.93 458.325 803.514C455.472 809.686 449.214 813.5 442.415 813.5H50.0017C22.3875 813.5 0.00174886 791.207 0.0016881 763.593C0.00140618 635.463 0.000274249 427.49 2.83762e-10 378.256C-3.72683e-05 371.566 3.69419 365.586 9.70704 362.652C53.6358 341.217 102.927 328 155.001 328C339.464 328 489.001 479.037 489.001 663.5Z" fill="#4F5B7A"/>
<path d="M1241.2 707C1201.53 707 1167.47 700.233 1139 686.7C1111 673.167 1085.57 652.867 1062.7 625.8L1125.7 562.8C1140.17 581.933 1156.97 596.867 1176.1 607.6C1195.23 617.867 1218.57 623 1246.1 623C1270.83 623 1290.43 618.1 1304.9 608.3C1319.83 598.5 1327.3 584.967 1327.3 567.7C1327.3 552.767 1323.1 540.633 1314.7 531.3C1306.3 521.967 1295.1 514.033 1281.1 507.5C1267.57 500.967 1252.4 495.133 1235.6 490C1219.27 484.4 1202.7 478.1 1185.9 471.1C1169.57 464.1 1154.4 455.467 1140.4 445.2C1126.87 434.467 1115.9 420.933 1107.5 404.6C1099.1 387.8 1094.9 366.8 1094.9 341.6C1094.9 311.733 1102.13 286.3 1116.6 265.3C1131.07 244.3 1150.9 228.2 1176.1 217C1201.3 205.8 1229.77 200.2 1261.5 200.2C1295.1 200.2 1325.43 206.5 1352.5 219.1C1379.57 231.7 1401.73 248.033 1419 268.1L1356 331.1C1341.53 315.233 1326.6 303.567 1311.2 296.1C1296.27 288.633 1279.23 284.9 1260.1 284.9C1238.17 284.9 1220.9 289.1 1208.3 297.5C1195.7 305.9 1189.4 318.033 1189.4 333.9C1189.4 347.433 1193.6 358.4 1202 366.8C1210.4 375.2 1221.37 382.433 1234.9 388.5C1248.9 394.567 1264.07 400.4 1280.4 406C1297.2 411.6 1313.77 417.9 1330.1 424.9C1346.9 431.9 1362.07 441 1375.6 452.2C1389.6 463.4 1400.8 477.867 1409.2 495.6C1417.6 512.867 1421.8 534.333 1421.8 560C1421.8 605.733 1405.7 641.667 1373.5 667.8C1341.3 693.933 1297.2 707 1241.2 707ZM1610.34 707C1580.47 707 1553.87 700.7 1530.54 688.1C1507.67 675.5 1489.7 658 1476.64 635.6C1463.57 613.2 1457.04 587.3 1457.04 557.9V361.9H1549.44V555.8C1549.44 569.8 1551.77 581.933 1556.44 592.2C1561.1 602 1568.1 609.467 1577.44 614.6C1586.77 619.733 1597.74 622.3 1610.34 622.3C1629.47 622.3 1644.4 616.467 1655.14 604.8C1665.87 593.133 1671.24 576.8 1671.24 555.8V361.9H1762.94V557.9C1762.94 587.767 1756.4 613.9 1743.34 636.3C1730.74 658.7 1712.77 676.2 1689.44 688.8C1666.57 700.933 1640.2 707 1610.34 707ZM2042.46 700V506.1C2042.46 486.033 2036.16 469.7 2023.56 457.1C2010.96 444.5 1994.63 438.2 1974.56 438.2C1961.49 438.2 1949.83 441 1939.56 446.6C1929.29 452.2 1921.13 460.133 1915.06 470.4C1909.46 480.667 1906.66 492.567 1906.66 506.1L1870.96 487.9C1870.96 461.3 1876.56 438.2 1887.76 418.6C1899.43 398.533 1915.29 382.9 1935.36 371.7C1955.89 360.5 1978.99 354.9 2004.66 354.9C2029.39 354.9 2051.56 361.2 2071.16 373.8C2090.76 385.933 2106.16 402.033 2117.36 422.1C2128.56 441.7 2134.16 462.933 2134.16 485.8V700H2042.46ZM1814.96 700V361.9H1906.66V700H1814.96ZM2187.03 700V361.9H2278.73V700H2187.03ZM2278.73 513.1L2243.03 489.3C2247.23 447.767 2259.36 415.1 2279.43 391.3C2299.49 367.033 2328.43 354.9 2366.23 354.9C2382.56 354.9 2397.26 357.7 2410.33 363.3C2423.39 368.433 2435.29 377.067 2446.03 389.2L2388.63 455C2383.49 449.4 2377.19 445.2 2369.73 442.4C2362.73 439.6 2354.56 438.2 2345.23 438.2C2325.63 438.2 2309.53 444.5 2296.93 457.1C2284.79 469.233 2278.73 487.9 2278.73 513.1ZM2457.24 700V361.9H2549.64V700H2457.24ZM2503.44 307.3C2488.5 307.3 2476.14 302.4 2466.34 292.6C2456.54 282.333 2451.64 269.733 2451.64 254.8C2451.64 240.333 2456.54 227.967 2466.34 217.7C2476.14 207.433 2488.5 202.3 2503.44 202.3C2518.84 202.3 2531.2 207.433 2540.54 217.7C2550.34 227.967 2555.24 240.333 2555.24 254.8C2555.24 269.733 2550.34 282.333 2540.54 292.6C2531.2 302.4 2518.84 307.3 2503.44 307.3ZM2726.07 707.7C2706.94 707.7 2688.04 705.133 2669.37 700C2651.17 694.867 2634.37 687.867 2618.97 679C2603.57 669.667 2590.27 658.467 2579.07 645.4L2633.67 590.1C2645.34 603.167 2658.87 612.967 2674.27 619.5C2689.67 626.033 2706.7 629.3 2725.37 629.3C2740.3 629.3 2751.5 627.2 2758.97 623C2766.9 618.8 2770.87 612.5 2770.87 604.1C2770.87 594.767 2766.67 587.533 2758.27 582.4C2750.34 577.267 2739.84 573.067 2726.77 569.8C2713.7 566.067 2699.94 562.1 2685.47 557.9C2671.47 553.233 2657.94 547.4 2644.87 540.4C2631.8 532.933 2621.07 522.9 2612.67 510.3C2604.74 497.233 2600.77 480.433 2600.77 459.9C2600.77 438.433 2605.9 419.767 2616.17 403.9C2626.9 388.033 2642.07 375.667 2661.67 366.8C2681.27 357.933 2704.37 353.5 2730.97 353.5C2758.97 353.5 2784.17 358.4 2806.57 368.2C2829.44 378 2848.34 392.7 2863.27 412.3L2807.97 467.6C2797.7 455 2786.04 445.9 2772.97 440.3C2760.37 434.7 2746.6 431.9 2731.67 431.9C2718.14 431.9 2707.64 434 2700.17 438.2C2693.17 442.4 2689.67 448.233 2689.67 455.7C2689.67 464.1 2693.64 470.633 2701.57 475.3C2709.97 479.967 2720.7 484.167 2733.77 487.9C2746.84 491.167 2760.37 495.133 2774.37 499.8C2788.84 504 2802.37 510.067 2814.97 518C2828.04 525.933 2838.54 536.433 2846.47 549.5C2854.87 562.567 2859.07 579.367 2859.07 599.9C2859.07 633.033 2847.17 659.4 2823.37 679C2799.57 698.133 2767.14 707.7 2726.07 707.7ZM3061.6 707C3026.14 707 2994.64 699.533 2967.1 684.6C2939.57 669.2 2917.64 648.2 2901.3 621.6C2885.44 595 2877.5 564.667 2877.5 530.6C2877.5 497 2885.2 467.133 2900.6 441C2916.47 414.4 2937.94 393.4 2965 378C2992.07 362.133 3022.17 354.2 3055.3 354.2C3087.97 354.2 3116.67 361.667 3141.4 376.6C3166.6 391.067 3186.2 411.133 3200.2 436.8C3214.67 462 3221.9 490.7 3221.9 522.9C3221.9 528.967 3221.44 535.267 3220.5 541.8C3220.04 547.867 3218.87 554.867 3217 562.8L2932.8 563.5V494.9L3174.3 494.2L3137.2 522.9C3136.27 502.833 3132.54 486.033 3126 472.5C3119.94 458.967 3110.84 448.7 3098.7 441.7C3087.04 434.233 3072.57 430.5 3055.3 430.5C3037.1 430.5 3021.24 434.7 3007.7 443.1C2994.17 451.033 2983.67 462.467 2976.2 477.4C2969.2 491.867 2965.7 509.133 2965.7 529.2C2965.7 549.733 2969.44 567.7 2976.9 583.1C2984.84 598.033 2996.04 609.7 3010.5 618.1C3024.97 626.033 3041.77 630 3060.9 630C3078.17 630 3093.8 627.2 3107.8 621.6C3121.8 615.533 3133.94 606.667 3144.2 595L3198.1 648.9C3181.77 668.033 3161.7 682.5 3137.9 692.3C3114.57 702.1 3089.14 707 3061.6 707ZM3448.23 700V615.3H3573.53C3605.27 615.3 3633.03 608.767 3656.83 595.7C3680.63 582.167 3699.07 563.267 3712.13 539C3725.67 514.733 3732.43 486.033 3732.43 452.9C3732.43 420.7 3725.67 392.7 3712.13 368.9C3698.6 344.633 3679.93 325.967 3656.13 312.9C3632.33 299.367 3604.8 292.6 3573.53 292.6H3446.13V207.9H3574.93C3611.33 207.9 3644.93 213.967 3675.73 226.1C3707 238.233 3734.07 255.5 3756.93 277.9C3780.27 299.833 3798.23 325.733 3810.83 355.6C3823.9 385.467 3830.43 418.133 3830.43 453.6C3830.43 489.067 3823.9 521.967 3810.83 552.3C3798.23 582.167 3780.5 608.3 3757.63 630.7C3734.77 652.633 3707.7 669.667 3676.43 681.8C3645.63 693.933 3612.27 700 3576.33 700H3448.23ZM3383.13 700V207.9H3478.33V700H3383.13ZM4016.68 707C3985.88 707 3958.12 699.3 3933.38 683.9C3908.65 668.5 3889.28 647.5 3875.28 620.9C3861.28 594.3 3854.28 564.433 3854.28 531.3C3854.28 497.7 3861.28 467.6 3875.28 441C3889.28 414.4 3908.65 393.4 3933.38 378C3958.12 362.6 3985.88 354.9 4016.68 354.9C4040.95 354.9 4062.65 359.8 4081.78 369.6C4100.92 379.4 4116.08 393.167 4127.28 410.9C4138.95 428.167 4145.25 447.767 4146.18 469.7V591.5C4145.25 613.9 4138.95 633.733 4127.28 651C4116.08 668.267 4100.92 682.033 4081.78 692.3C4062.65 702.1 4040.95 707 4016.68 707ZM4033.48 622.3C4059.15 622.3 4079.92 613.9 4095.78 597.1C4111.65 579.833 4119.58 557.667 4119.58 530.6C4119.58 512.867 4115.85 497.233 4108.38 483.7C4101.38 469.7 4091.35 458.967 4078.28 451.5C4065.68 443.567 4050.75 439.6 4033.48 439.6C4016.68 439.6 4001.75 443.567 3988.68 451.5C3976.08 458.967 3966.05 469.7 3958.58 483.7C3951.58 497.233 3948.08 512.867 3948.08 530.6C3948.08 548.8 3951.58 564.9 3958.58 578.9C3966.05 592.433 3976.08 603.167 3988.68 611.1C4001.75 618.567 4016.68 622.3 4033.48 622.3ZM4114.68 700V609L4129.38 526.4L4114.68 445.2V361.9H4205.68V700H4114.68ZM4382.01 707.7C4362.87 707.7 4343.97 705.133 4325.31 700C4307.11 694.867 4290.31 687.867 4274.91 679C4259.51 669.667 4246.21 658.467 4235.01 645.4L4289.61 590.1C4301.27 603.167 4314.81 612.967 4330.21 619.5C4345.61 626.033 4362.64 629.3 4381.31 629.3C4396.24 629.3 4407.44 627.2 4414.91 623C4422.84 618.8 4426.81 612.5 4426.81 604.1C4426.81 594.767 4422.61 587.533 4414.21 582.4C4406.27 577.267 4395.77 573.067 4382.71 569.8C4369.64 566.067 4355.87 562.1 4341.41 557.9C4327.41 553.233 4313.87 547.4 4300.81 540.4C4287.74 532.933 4277.01 522.9 4268.61 510.3C4260.67 497.233 4256.71 480.433 4256.71 459.9C4256.71 438.433 4261.84 419.767 4272.11 403.9C4282.84 388.033 4298.01 375.667 4317.61 366.8C4337.21 357.933 4360.31 353.5 4386.91 353.5C4414.91 353.5 4440.11 358.4 4462.51 368.2C4485.37 378 4504.27 392.7 4519.21 412.3L4463.91 467.6C4453.64 455 4441.97 445.9 4428.91 440.3C4416.31 434.7 4402.54 431.9 4387.61 431.9C4374.07 431.9 4363.57 434 4356.11 438.2C4349.11 442.4 4345.61 448.233 4345.61 455.7C4345.61 464.1 4349.57 470.633 4357.51 475.3C4365.91 479.967 4376.64 484.167 4389.71 487.9C4402.77 491.167 4416.31 495.133 4430.31 499.8C4444.77 504 4458.31 510.067 4470.91 518C4483.97 525.933 4494.47 536.433 4502.41 549.5C4510.81 562.567 4515.01 579.367 4515.01 599.9C4515.01 633.033 4503.11 659.4 4479.31 679C4455.51 698.133 4423.07 707.7 4382.01 707.7ZM4783.34 700V506.1C4783.34 486.033 4777.04 469.7 4764.44 457.1C4751.84 444.5 4735.51 438.2 4715.44 438.2C4702.38 438.2 4690.71 441 4680.44 446.6C4670.18 452.2 4662.01 460.133 4655.94 470.4C4650.34 480.667 4647.54 492.567 4647.54 506.1L4611.84 487.9C4611.84 461.3 4617.44 438.2 4628.64 418.6C4639.84 398.533 4655.24 382.9 4674.84 371.7C4694.91 360.5 4717.78 354.9 4743.44 354.9C4769.11 354.9 4791.74 360.5 4811.34 371.7C4831.41 382.9 4847.04 398.3 4858.24 417.9C4869.44 437.5 4875.04 460.133 4875.04 485.8V700H4783.34ZM4555.84 700V193.9H4647.54V700H4555.84ZM5115.51 707C5091.24 707 5069.31 701.867 5049.71 691.6C5030.11 681.333 5014.48 667.333 5002.81 649.6C4991.14 631.867 4984.84 612.033 4983.91 590.1V469.7C4984.84 447.767 4991.14 428.167 5002.81 410.9C5014.94 393.167 5030.81 379.4 5050.41 369.6C5070.01 359.8 5091.71 354.9 5115.51 354.9C5146.78 354.9 5174.78 362.6 5199.51 378C5224.24 393.4 5243.61 414.4 5257.61 441C5272.08 467.6 5279.31 497.7 5279.31 531.3C5279.31 564.433 5272.08 594.3 5257.61 620.9C5243.61 647.5 5224.24 668.5 5199.51 683.9C5174.78 699.3 5146.78 707 5115.51 707ZM4927.91 700V193.9H5019.61V445.2L5004.21 526.4L5018.91 609V700H4927.91ZM5100.11 622.3C5116.91 622.3 5131.61 618.567 5144.21 611.1C5157.28 603.167 5167.31 592.433 5174.31 578.9C5181.78 564.9 5185.51 548.8 5185.51 530.6C5185.51 512.867 5181.78 497.233 5174.31 483.7C5167.31 469.7 5157.28 458.967 5144.21 451.5C5131.14 443.567 5116.21 439.6 5099.41 439.6C5082.61 439.6 5067.68 443.567 5054.61 451.5C5042.01 458.967 5031.98 469.7 5024.51 483.7C5017.51 497.233 5014.01 512.867 5014.01 530.6C5014.01 548.8 5017.51 564.9 5024.51 578.9C5031.98 592.433 5042.24 603.167 5055.31 611.1C5068.38 618.567 5083.31 622.3 5100.11 622.3ZM5477.33 707C5443.27 707 5412.47 699.3 5384.93 683.9C5357.87 668.033 5336.17 646.8 5319.83 620.2C5303.97 593.133 5296.03 563.033 5296.03 529.9C5296.03 496.767 5303.97 467.133 5319.83 441C5335.7 414.4 5357.4 393.4 5384.93 378C5412.47 362.133 5443.03 354.2 5476.63 354.2C5511.17 354.2 5541.97 362.133 5569.03 378C5596.57 393.4 5618.27 414.4 5634.13 441C5650 467.133 5657.93 496.767 5657.93 529.9C5657.93 563.033 5650 593.133 5634.13 620.2C5618.27 646.8 5596.57 668.033 5569.03 683.9C5541.97 699.3 5511.4 707 5477.33 707ZM5476.63 621.6C5493.9 621.6 5509.07 617.867 5522.13 610.4C5535.67 602.467 5545.93 591.733 5552.93 578.2C5560.4 564.2 5564.13 548.333 5564.13 530.6C5564.13 512.867 5560.4 497.233 5552.93 483.7C5545.47 470.167 5535.2 459.667 5522.13 452.2C5509.07 444.267 5493.9 440.3 5476.63 440.3C5459.83 440.3 5444.9 444.267 5431.83 452.2C5418.77 459.667 5408.5 470.167 5401.03 483.7C5393.57 497.233 5389.83 512.867 5389.83 530.6C5389.83 548.333 5393.57 564.2 5401.03 578.2C5408.5 591.733 5418.77 602.467 5431.83 610.4C5444.9 617.867 5459.83 621.6 5476.63 621.6ZM5837.37 707C5806.57 707 5778.8 699.3 5754.07 683.9C5729.33 668.5 5709.97 647.5 5695.97 620.9C5681.97 594.3 5674.97 564.433 5674.97 531.3C5674.97 497.7 5681.97 467.6 5695.97 441C5709.97 414.4 5729.33 393.4 5754.07 378C5778.8 362.6 5806.57 354.9 5837.37 354.9C5861.63 354.9 5883.33 359.8 5902.47 369.6C5921.6 379.4 5936.77 393.167 5947.97 410.9C5959.63 428.167 5965.93 447.767 5966.87 469.7V591.5C5965.93 613.9 5959.63 633.733 5947.97 651C5936.77 668.267 5921.6 682.033 5902.47 692.3C5883.33 702.1 5861.63 707 5837.37 707ZM5854.17 622.3C5879.83 622.3 5900.6 613.9 5916.47 597.1C5932.33 579.833 5940.27 557.667 5940.27 530.6C5940.27 512.867 5936.53 497.233 5929.07 483.7C5922.07 469.7 5912.03 458.967 5898.97 451.5C5886.37 443.567 5871.43 439.6 5854.17 439.6C5837.37 439.6 5822.43 443.567 5809.37 451.5C5796.77 458.967 5786.73 469.7 5779.27 483.7C5772.27 497.233 5768.77 512.867 5768.77 530.6C5768.77 548.8 5772.27 564.9 5779.27 578.9C5786.73 592.433 5796.77 603.167 5809.37 611.1C5822.43 618.567 5837.37 622.3 5854.17 622.3ZM5935.37 700V609L5950.07 526.4L5935.37 445.2V361.9H6026.37V700H5935.37ZM6086.49 700V361.9H6178.19V700H6086.49ZM6178.19 513.1L6142.49 489.3C6146.69 447.767 6158.82 415.1 6178.89 391.3C6198.96 367.033 6227.89 354.9 6265.69 354.9C6282.02 354.9 6296.72 357.7 6309.79 363.3C6322.86 368.433 6334.76 377.067 6345.49 389.2L6288.09 455C6282.96 449.4 6276.66 445.2 6269.19 442.4C6262.19 439.6 6254.02 438.2 6244.69 438.2C6225.09 438.2 6208.99 444.5 6196.39 457.1C6184.26 469.233 6178.19 487.9 6178.19 513.1ZM6489.93 707C6458.66 707 6430.66 699.3 6405.93 683.9C6381.2 668.5 6361.6 647.5 6347.13 620.9C6333.13 594.3 6326.13 564.433 6326.13 531.3C6326.13 497.7 6333.13 467.6 6347.13 441C6361.6 414.4 6380.96 393.4 6405.23 378C6429.96 362.6 6458.2 354.9 6489.93 354.9C6514.2 354.9 6535.9 359.8 6555.03 369.6C6574.63 379.4 6590.26 393.167 6601.93 410.9C6614.06 428.167 6620.6 447.767 6621.53 469.7V590.1C6620.6 612.033 6614.3 631.867 6602.63 649.6C6590.96 667.333 6575.33 681.333 6555.73 691.6C6536.13 701.867 6514.2 707 6489.93 707ZM6505.33 622.3C6522.6 622.3 6537.53 618.567 6550.13 611.1C6563.2 603.167 6573.23 592.433 6580.23 578.9C6587.7 564.9 6591.43 548.8 6591.43 530.6C6591.43 512.867 6587.7 497.233 6580.23 483.7C6573.23 469.7 6563.2 458.967 6550.13 451.5C6537.53 443.567 6522.83 439.6 6506.03 439.6C6488.76 439.6 6473.6 443.567 6460.53 451.5C6447.93 459.433 6437.9 470.167 6430.43 483.7C6423.43 497.233 6419.93 512.867 6419.93 530.6C6419.93 548.8 6423.43 564.9 6430.43 578.9C6437.9 592.433 6448.16 603.167 6461.23 611.1C6474.3 618.567 6489 622.3 6505.33 622.3ZM6677.53 700H6586.53V609L6601.23 526.4L6585.83 445.2V193.9H6677.53V700Z" fill="#4F5B7A"/>
</svg>
