<svg width="680" height="159" viewBox="0 0 680 159" fill="none" xmlns="http://www.w3.org/2000/svg">
<rect width="680" height="159" rx="10" fill="#4F5B7A"/>
<path d="M93.1451 64C93.3118 64 93.4451 64.0667 93.5451 64.2C93.6785 64.3 93.7451 64.4333 93.7451 64.6V68.45C93.7451 68.6167 93.6785 68.7667 93.5451 68.9C93.4451 69 93.3118 69.05 93.1451 69.05H83.9451C83.7785 69.05 83.6951 69.1333 83.6951 69.3V98.4C83.6951 98.5667 83.6285 98.7167 83.4951 98.85C83.3951 98.95 83.2618 99 83.0951 99H78.4951C78.3285 99 78.1785 98.95 78.0451 98.85C77.9451 98.7167 77.8951 98.5667 77.8951 98.4V69.3C77.8951 69.1333 77.8118 69.05 77.6451 69.05H68.7951C68.6285 69.05 68.4785 69 68.3451 68.9C68.2451 68.7667 68.1951 68.6167 68.1951 68.45V64.6C68.1951 64.4333 68.2451 64.3 68.3451 64.2C68.4785 64.0667 68.6285 64 68.7951 64H93.1451ZM127.773 99C127.44 99 127.223 98.8333 127.123 98.5L125.473 93.15C125.406 93.0167 125.323 92.95 125.223 92.95H112.023C111.923 92.95 111.84 93.0167 111.773 93.15L110.123 98.5C110.023 98.8333 109.806 99 109.473 99H104.473C104.273 99 104.123 98.95 104.023 98.85C103.923 98.7167 103.906 98.5333 103.973 98.3L114.823 64.5C114.923 64.1667 115.14 64 115.473 64H121.723C122.056 64 122.273 64.1667 122.373 64.5L133.273 98.3C133.306 98.3667 133.323 98.45 133.323 98.55C133.323 98.85 133.14 99 132.773 99H127.773ZM113.323 88.1C113.29 88.3 113.356 88.4 113.523 88.4H123.673C123.873 88.4 123.94 88.3 123.873 88.1L118.723 71.35C118.69 71.2167 118.64 71.15 118.573 71.15C118.506 71.15 118.456 71.2167 118.423 71.35L113.323 88.1ZM149.095 99C148.928 99 148.778 98.95 148.645 98.85C148.545 98.7167 148.495 98.5667 148.495 98.4V64.6C148.495 64.4333 148.545 64.3 148.645 64.2C148.778 64.0667 148.928 64 149.095 64H153.695C153.861 64 153.995 64.0667 154.095 64.2C154.228 64.3 154.295 64.4333 154.295 64.6V98.4C154.295 98.5667 154.228 98.7167 154.095 98.85C153.995 98.95 153.861 99 153.695 99H149.095ZM172.181 99C172.014 99 171.864 98.95 171.731 98.85C171.631 98.7167 171.581 98.5667 171.581 98.4V64.6C171.581 64.4333 171.631 64.3 171.731 64.2C171.864 64.0667 172.014 64 172.181 64H176.781C176.947 64 177.081 64.0667 177.181 64.2C177.314 64.3 177.381 64.4333 177.381 64.6V93.75C177.381 93.9167 177.464 94 177.631 94H194.381C194.547 94 194.681 94.0667 194.781 94.2C194.914 94.3 194.981 94.4333 194.981 94.6V98.4C194.981 98.5667 194.914 98.7167 194.781 98.85C194.681 98.95 194.547 99 194.381 99H172.181ZM221.702 99.5C219.202 99.5 216.985 99 215.052 98C213.119 96.9667 211.619 95.5167 210.552 93.65C209.519 91.7833 209.002 89.6333 209.002 87.2V75.8C209.002 73.4 209.535 71.2833 210.602 69.45C211.669 67.5833 213.152 66.15 215.052 65.15C216.985 64.1167 219.202 63.6 221.702 63.6C224.235 63.6 226.452 64.1167 228.352 65.15C230.285 66.15 231.785 67.5833 232.852 69.45C233.919 71.2833 234.452 73.4 234.452 75.8V87.2C234.452 89.6333 233.919 91.7833 232.852 93.65C231.785 95.5167 230.285 96.9667 228.352 98C226.452 99 224.235 99.5 221.702 99.5ZM221.702 94.5C223.802 94.5 225.485 93.85 226.752 92.55C228.019 91.25 228.652 89.5333 228.652 87.4V75.75C228.652 73.5833 228.019 71.85 226.752 70.55C225.485 69.25 223.802 68.6 221.702 68.6C219.635 68.6 217.969 69.25 216.702 70.55C215.435 71.85 214.802 73.5833 214.802 75.75V87.4C214.802 89.5333 215.435 91.25 216.702 92.55C217.969 93.85 219.635 94.5 221.702 94.5ZM270.557 99C270.224 99 269.99 98.85 269.857 98.55L263.257 84.15C263.19 84.0167 263.09 83.95 262.957 83.95H256.957C256.79 83.95 256.707 84.0333 256.707 84.2V98.4C256.707 98.5667 256.64 98.7167 256.507 98.85C256.407 98.95 256.274 99 256.107 99H251.507C251.34 99 251.19 98.95 251.057 98.85C250.957 98.7167 250.907 98.5667 250.907 98.4V64.6C250.907 64.4333 250.957 64.3 251.057 64.2C251.19 64.0667 251.34 64 251.507 64H265.257C267.29 64 269.09 64.4333 270.657 65.3C272.224 66.1333 273.44 67.3333 274.307 68.9C275.174 70.4333 275.607 72.2 275.607 74.2C275.607 76.5 275.007 78.4667 273.807 80.1C272.64 81.7 271.007 82.8167 268.907 83.45C268.84 83.45 268.79 83.4833 268.757 83.55C268.724 83.6167 268.724 83.6833 268.757 83.75L275.807 98.3C275.874 98.4333 275.907 98.5333 275.907 98.6C275.907 98.8667 275.724 99 275.357 99H270.557ZM256.957 69C256.79 69 256.707 69.0833 256.707 69.25V79.2C256.707 79.3667 256.79 79.45 256.957 79.45H264.457C266.057 79.45 267.34 78.9833 268.307 78.05C269.307 77.0833 269.807 75.8167 269.807 74.25C269.807 72.6833 269.307 71.4167 268.307 70.45C267.34 69.4833 266.057 69 264.457 69H256.957ZM374.15 64.4C374.317 64.1333 374.55 64 374.85 64H379.45C379.617 64 379.75 64.0667 379.85 64.2C379.984 64.3 380.05 64.4333 380.05 64.6V98.4C380.05 98.5667 379.984 98.7167 379.85 98.85C379.75 98.95 379.617 99 379.45 99H374.85C374.684 99 374.534 98.95 374.4 98.85C374.3 98.7167 374.25 98.5667 374.25 98.4V74.55C374.25 74.45 374.2 74.3833 374.1 74.35C374.034 74.3167 373.984 74.35 373.95 74.45L367.7 84.05C367.534 84.3167 367.3 84.45 367 84.45H364.7C364.4 84.45 364.167 84.3167 364 84.05L357.7 74.5C357.667 74.4 357.6 74.3667 357.5 74.4C357.434 74.4333 357.4 74.5 357.4 74.6V98.4C357.4 98.5667 357.334 98.7167 357.2 98.85C357.1 98.95 356.967 99 356.8 99H352.2C352.034 99 351.884 98.95 351.75 98.85C351.65 98.7167 351.6 98.5667 351.6 98.4V64.6C351.6 64.4333 351.65 64.3 351.75 64.2C351.884 64.0667 352.034 64 352.2 64H356.8C357.1 64 357.334 64.1333 357.5 64.4L365.65 76.75C365.717 76.8167 365.784 76.85 365.85 76.85C365.917 76.85 365.967 76.8167 366 76.75L374.15 64.4ZM419.042 99C418.709 99 418.492 98.8333 418.392 98.5L416.742 93.15C416.676 93.0167 416.592 92.95 416.492 92.95H403.292C403.192 92.95 403.109 93.0167 403.042 93.15L401.392 98.5C401.292 98.8333 401.076 99 400.742 99H395.742C395.542 99 395.392 98.95 395.292 98.85C395.192 98.7167 395.176 98.5333 395.242 98.3L406.092 64.5C406.192 64.1667 406.409 64 406.742 64H412.992C413.326 64 413.542 64.1667 413.642 64.5L424.542 98.3C424.576 98.3667 424.592 98.45 424.592 98.55C424.592 98.85 424.409 99 424.042 99H419.042ZM404.592 88.1C404.559 88.3 404.626 88.4 404.792 88.4H414.942C415.142 88.4 415.209 88.3 415.142 88.1L409.992 71.35C409.959 71.2167 409.909 71.15 409.842 71.15C409.776 71.15 409.726 71.2167 409.692 71.35L404.592 88.1ZM440.364 99C440.198 99 440.048 98.95 439.914 98.85C439.814 98.7167 439.764 98.5667 439.764 98.4V64.6C439.764 64.4333 439.814 64.3 439.914 64.2C440.048 64.0667 440.198 64 440.364 64H452.564C454.931 64 457.014 64.4167 458.814 65.25C460.614 66.0833 461.998 67.2833 462.964 68.85C463.964 70.3833 464.464 72.1833 464.464 74.25V88.75C464.464 90.8167 463.964 92.6333 462.964 94.2C461.998 95.7333 460.614 96.9167 458.814 97.75C457.014 98.5833 454.931 99 452.564 99H440.364ZM445.564 93.75C445.564 93.9167 445.648 94 445.814 94H452.814C454.581 94 455.981 93.45 457.014 92.35C458.081 91.2167 458.631 89.7167 458.664 87.85V75.2C458.664 73.3 458.131 71.8 457.064 70.7C455.998 69.5667 454.564 69 452.764 69H445.814C445.648 69 445.564 69.0833 445.564 69.25V93.75ZM504.372 68.4C504.372 68.5667 504.306 68.7167 504.172 68.85C504.072 68.95 503.939 69 503.772 69H486.722C486.556 69 486.472 69.0833 486.472 69.25V78.6C486.472 78.7667 486.556 78.85 486.722 78.85H498.172C498.339 78.85 498.472 78.9167 498.572 79.05C498.706 79.15 498.772 79.2833 498.772 79.45V83.25C498.772 83.4167 498.706 83.5667 498.572 83.7C498.472 83.8 498.339 83.85 498.172 83.85H486.722C486.556 83.85 486.472 83.9333 486.472 84.1V93.75C486.472 93.9167 486.556 94 486.722 94H503.772C503.939 94 504.072 94.0667 504.172 94.2C504.306 94.3 504.372 94.4333 504.372 94.6V98.4C504.372 98.5667 504.306 98.7167 504.172 98.85C504.072 98.95 503.939 99 503.772 99H481.272C481.106 99 480.956 98.95 480.822 98.85C480.722 98.7167 480.672 98.5667 480.672 98.4V64.6C480.672 64.4333 480.722 64.3 480.822 64.2C480.956 64.0667 481.106 64 481.272 64H503.772C503.939 64 504.072 64.0667 504.172 64.2C504.306 64.3 504.372 64.4333 504.372 64.6V68.4ZM572.532 99.4C570.065 99.4 567.882 98.9167 565.982 97.95C564.082 96.9833 562.599 95.6167 561.532 93.85C560.499 92.05 559.982 89.9833 559.982 87.65V64.6C559.982 64.4333 560.032 64.3 560.132 64.2C560.265 64.0667 560.415 64 560.582 64H565.182C565.349 64 565.482 64.0667 565.582 64.2C565.715 64.3 565.782 64.4333 565.782 64.6V87.75C565.782 89.7167 566.399 91.3167 567.632 92.55C568.865 93.7833 570.499 94.4 572.532 94.4C574.565 94.4 576.199 93.7833 577.432 92.55C578.665 91.3167 579.282 89.7167 579.282 87.75V64.6C579.282 64.4333 579.332 64.3 579.432 64.2C579.565 64.0667 579.715 64 579.882 64H584.482C584.649 64 584.782 64.0667 584.882 64.2C585.015 64.3 585.082 64.4333 585.082 64.6V87.65C585.082 89.9833 584.565 92.05 583.532 93.85C582.499 95.6167 581.032 96.9833 579.132 97.95C577.232 98.9167 575.032 99.4 572.532 99.4ZM602.669 99C602.502 99 602.352 98.95 602.219 98.85C602.119 98.7167 602.069 98.5667 602.069 98.4V64.6C602.069 64.4333 602.119 64.3 602.219 64.2C602.352 64.0667 602.502 64 602.669 64H607.269C607.436 64 607.569 64.0667 607.669 64.2C607.802 64.3 607.869 64.4333 607.869 64.6V98.4C607.869 98.5667 607.802 98.7167 607.669 98.85C607.569 98.95 607.436 99 607.269 99H602.669Z" fill="white"/>
<rect x="309" y="76" width="10" height="10" rx="2" fill="#FA5B66"/>
<rect x="18" y="18" width="10" height="10" rx="3" fill="#A7B7E2"/>
<rect x="18" y="132" width="10" height="10" rx="3" fill="#A7B7E2"/>
<rect x="653" y="132" width="10" height="10" rx="3" fill="#A7B7E2"/>
<rect x="653" y="18" width="10" height="10" rx="3" fill="#A7B7E2"/>
</svg>
