<svg width="301" height="407" viewBox="0 0 301 407" fill="none" xmlns="http://www.w3.org/2000/svg">
<path fill-rule="evenodd" clip-rule="evenodd" d="M300.687 51.1279C300.348 17.6276 268.501 -6.55521 236.14 2.11575L178.063 17.6776C155.241 23.7927 139.345 44.4392 139.268 68.0662V68.0662C139.192 91.6931 123.296 112.34 100.474 118.455L38.855 134.965C16.4969 140.956 0.924163 161.183 0.849087 184.33V184.33C0.739506 218.115 32.764 242.771 65.3983 234.027L99.7275 224.828C119.511 219.527 138.925 234.474 138.858 254.955V254.955C138.813 268.987 129.372 281.249 115.818 284.88L39.1997 305.41C16.8416 311.401 1.26891 331.628 1.19383 354.775V354.775C1.08425 388.56 33.1088 413.216 65.7431 404.472L124.549 388.714C147.154 382.658 162.736 361.993 162.342 338.594V338.594C161.949 315.195 177.531 294.531 200.135 288.474L262.326 271.81C284.93 265.753 300.566 245.162 300.33 221.761V221.761C299.991 188.261 268.143 164.078 235.783 172.749L201.57 181.916C182.036 187.151 162.784 172.633 162.444 152.413V152.413C162.204 138.151 171.701 125.556 185.479 121.864L262.684 101.177C285.288 95.1202 300.924 74.5283 300.687 51.1279V51.1279Z" fill="#FA436F"/>
</svg>
