<svg width="2216" height="1382" viewBox="0 0 2216 1382" fill="none" xmlns="http://www.w3.org/2000/svg">
<path opacity="0.35" fill-rule="evenodd" clip-rule="evenodd" d="M287.603 459.405C265.995 463.998 248.478 485.63 248.478 507.721V857.448L69.2538 895.544C47.6452 900.137 30.1279 921.769 30.1279 943.86V1334.86C30.1279 1356.95 47.6452 1371.14 69.2539 1366.54L1649.87 1030.57C1671.48 1025.98 1689 1004.35 1689 982.256V633.152L2176.88 529.451C2198.48 524.858 2216 503.226 2216 481.135V89.511C2216 67.4197 2198.48 53.2344 2176.88 57.8275L287.603 459.405Z" fill="#49B2FD"/>
<path fill-rule="evenodd" clip-rule="evenodd" d="M257.603 429.405C235.995 433.998 218.478 455.63 218.478 477.721V827.448L39.2538 865.544C17.6452 870.137 0.12793 891.769 0.12793 913.86V1304.86C0.12793 1326.95 17.6452 1341.14 39.2539 1336.54L1619.87 1000.57C1641.48 995.979 1659 974.347 1659 952.256V603.152L2146.88 499.451C2168.48 494.858 2186 473.226 2186 451.135V59.511C2186 37.4196 2168.48 23.2344 2146.88 27.8275L257.603 429.405Z" fill="#F7325D"/>
<path d="M133.754 1204.57V948.574L276.563 918.219V979.819L197.92 996.535V1040.53L269.912 1025.23V1084.03L197.92 1099.33V1190.93L133.754 1204.57ZM393.091 1153.45C308.971 1171.33 296.45 1103.19 296.45 1041.99C296.45 981.191 309.362 907.247 393.091 889.45C476.821 871.653 490.124 940.025 490.124 1001.22C490.124 1062.02 476.821 1135.65 393.091 1153.45ZM393.091 1091.85C422.827 1085.53 424.783 1048.71 424.783 1015.11C424.783 980.713 422.827 945.129 393.091 951.45C363.356 957.77 361.399 993.786 361.399 1028.19C361.399 1062.19 363.356 1098.17 393.091 1091.85ZM610.155 1107.31C543.249 1121.53 519.774 1090.92 519.774 1014.92V866.523L584.723 852.717V1001.92C584.723 1039.12 592.939 1046.17 610.155 1042.51C627.37 1038.85 635.586 1028.31 635.586 991.106V841.906L700.144 828.184V976.584C700.144 1052.58 677.06 1093.09 610.155 1107.31ZM738.512 1076.03V820.028L810.895 804.643L861.759 925.032V793.832L926.316 780.109V1036.11L855.89 1051.08L803.461 933.423V1062.22L738.512 1076.03ZM967.075 1027.45V771.446L1048.85 754.064C1115.75 739.843 1143.14 788.022 1143.14 862.022C1143.14 935.222 1113.8 996.259 1045.72 1010.73L967.075 1027.45ZM1031.24 953.407L1037.5 952.076C1060.59 947.17 1078.58 937.744 1078.58 875.344C1078.58 813.744 1062.15 811.637 1038.67 816.627L1031.24 818.207V953.407ZM1176.55 982.92V726.92L1320.93 696.233V757.833L1240.72 774.881V811.281L1312.71 795.979V851.579L1240.72 866.881V907.681L1320.93 890.633V952.233L1176.55 982.92ZM1354.31 945.136V689.136L1432.57 672.503C1512.77 655.454 1518.25 707.89 1518.25 741.49C1518.25 771.49 1505.73 804.551 1479.13 819.006L1531.16 907.545L1454.09 923.929L1418.48 829.897V931.497L1354.31 945.136ZM1418.48 793.497L1430.61 790.919C1447.04 787.426 1453.3 778.495 1453.3 758.095C1453.3 735.695 1446.26 730.792 1430.61 734.119L1418.48 736.697V793.497Z" fill="#F8F5F2"/>
<path d="M367.684 773.347V517.347L510.494 486.992V548.592L431.851 565.308V609.308L503.842 594.006V652.806L431.851 668.108V759.708L367.684 773.347ZM624.674 722.722C557.769 736.943 534.293 706.333 534.293 630.333V481.933L599.242 468.128V617.328C599.242 654.528 607.459 661.581 624.674 657.922C641.889 654.263 650.106 643.717 650.106 606.517V457.317L714.664 443.594V591.994C714.664 667.994 691.579 708.501 624.674 722.722ZM753.031 691.439V435.439L817.589 421.717L816.807 617.883L877.061 605.076V665.076L753.031 691.439ZM904.048 659.339V403.339L968.606 389.617L967.823 585.784L1028.08 572.976V632.976L904.048 659.339ZM1215.95 597.043C1151 610.848 1124.79 586.82 1124.79 526.42L1190.52 512.449C1190.52 536.049 1197.56 545.352 1213.99 541.859C1227.3 539.031 1235.9 527.601 1235.9 513.601C1235.9 471.601 1127.92 522.155 1127.92 426.555C1127.92 394.155 1144.35 348.262 1211.65 333.958C1274.25 320.651 1295.77 351.677 1296.94 401.028L1233.95 414.417C1233.95 391.217 1225.73 386.564 1212.04 389.475C1200.69 391.886 1191.69 400.199 1191.69 414.999C1191.69 454.199 1298.9 411.412 1298.9 495.412C1298.9 529.412 1282.46 582.905 1215.95 597.043ZM1362.03 561.993V367.993L1316.64 377.64V315.64L1471.19 282.79V344.79L1425.8 354.437V548.437L1362.03 561.993ZM1451.42 542.993L1519.89 272.439L1593.44 256.804L1658.78 498.915L1591.88 513.137L1582.49 473.133L1528.89 484.526L1518.32 528.772L1451.42 542.993ZM1539.06 425.964L1571.92 418.978L1555.49 332.871L1539.06 425.964ZM1754.76 482.515C1672.99 499.896 1660.86 430.874 1660.86 370.474C1660.86 310.074 1673.38 235.813 1754.76 218.515C1821.67 204.294 1847.1 246.888 1847.1 310.488L1782.93 324.127C1780.98 282.943 1767.67 277.77 1754.76 280.515C1728.55 286.087 1725.81 325.869 1725.81 356.669C1725.81 394.669 1729.72 426.237 1754.76 420.915C1768.46 418.004 1780.98 410.143 1782.93 364.127L1847.1 350.488C1847.1 416.088 1822.06 468.21 1754.76 482.515ZM1879.67 451.964V195.964L1943.84 182.325V282.725L1981.01 174.425L2060.43 157.542L1998.61 293.082L2064.35 412.711L1984.92 429.593L1943.84 327.525V438.325L1879.67 451.964Z" fill="#F8F5F2"/>
</svg>
