<svg width="2328" height="1568" viewBox="0 0 2328 1568" fill="none" xmlns="http://www.w3.org/2000/svg">
<path fill-rule="evenodd" clip-rule="evenodd" d="M306.374 478.548C284.766 483.141 267.249 504.773 267.249 526.864V917.862L79.4443 957.781C57.8356 962.374 40.3184 984.006 40.3184 1006.1V1519.1C40.3184 1541.19 57.8356 1555.37 79.4442 1550.78L1769.68 1191.51C1791.29 1186.92 1808.81 1165.28 1808.81 1143.19V752.195L2288.1 650.319C2309.71 645.726 2327.23 624.094 2327.23 602.002V89.0021C2327.23 66.9107 2309.71 52.7256 2288.1 57.3186L306.374 478.548Z" fill="#49B2FD" fill-opacity="0.35"/>
<path fill-rule="evenodd" clip-rule="evenodd" d="M266.374 438.548C244.766 443.141 227.249 464.773 227.249 486.864V877.862L39.4443 917.781C17.8356 922.374 0.318359 944.006 0.318359 966.097V1479.1C0.318359 1501.19 17.8356 1515.37 39.4442 1510.78L1729.68 1151.51C1751.29 1146.92 1768.81 1125.28 1768.81 1103.19V712.195L2248.1 610.319C2269.71 605.726 2287.23 584.094 2287.23 562.002V49.0021C2287.23 26.9107 2269.71 12.7256 2248.1 17.3186L266.374 438.548Z" fill="#F7325D"/>
<path d="M195.752 1321.56V1065.56L338.562 1035.2V1096.8L259.919 1113.52V1157.52L331.911 1142.21V1201.01L259.919 1216.32V1307.92L195.752 1321.56ZM455.09 1270.43C370.969 1288.31 358.449 1220.17 358.449 1158.97C358.449 1098.17 371.361 1024.23 455.09 1006.43C538.819 988.635 552.122 1057.01 552.122 1118.21C552.122 1179.01 538.819 1252.63 455.09 1270.43ZM455.09 1208.83C484.826 1202.51 486.782 1165.7 486.782 1132.1C486.782 1097.7 484.826 1062.11 455.09 1068.43C425.354 1074.75 423.398 1110.77 423.398 1145.17C423.398 1179.17 425.354 1215.15 455.09 1208.83ZM672.153 1224.29C605.248 1238.52 581.772 1207.91 581.772 1131.91V983.505L646.721 969.7V1118.9C646.721 1156.1 654.938 1163.15 672.153 1159.49C689.369 1155.83 697.585 1145.29 697.585 1108.09V958.888L762.143 945.166V1093.57C762.143 1169.57 739.058 1210.07 672.153 1224.29ZM800.511 1193.01V937.011L872.893 921.625L923.757 1042.01V910.814L988.315 897.092V1153.09L917.888 1168.06L865.46 1050.41V1179.21L800.511 1193.01ZM1029.07 1144.43V888.428L1110.85 871.047C1177.75 856.826 1205.14 905.004 1205.14 979.004C1205.14 1052.2 1175.8 1113.24 1107.72 1127.71L1029.07 1144.43ZM1093.24 1070.39L1099.5 1069.06C1122.58 1064.15 1140.58 1054.73 1140.58 992.326C1140.58 930.726 1124.15 928.619 1100.67 933.609L1093.24 935.189V1070.39ZM1238.55 1099.9V843.903L1382.92 813.215V874.815L1302.72 891.864V928.264L1374.71 912.961V968.561L1302.72 983.864V1024.66L1382.92 1007.62V1069.22L1238.55 1099.9ZM1416.31 1062.12V806.118L1494.56 789.485C1574.77 772.436 1580.25 824.872 1580.25 858.472C1580.25 888.472 1567.73 921.533 1541.12 935.989L1593.16 1024.53L1516.08 1040.91L1480.48 946.879V1048.48L1416.31 1062.12ZM1480.48 910.479L1492.61 907.901C1509.04 904.408 1515.3 895.477 1515.3 875.077C1515.3 852.677 1508.26 847.774 1492.61 851.101L1480.48 853.679V910.479Z" fill="#F8F5F2"/>
<path d="M422.683 842.324V586.324L565.492 555.969V617.569L486.849 634.285V678.285L558.841 662.982V721.782L486.849 737.085V828.685L422.683 842.324ZM679.673 791.699C612.767 805.92 589.292 775.31 589.292 699.31V550.91L654.241 537.104V686.304C654.241 723.504 662.457 730.558 679.673 726.899C696.888 723.24 705.104 712.693 705.104 675.493V526.293L769.662 512.571V660.971C769.662 736.971 746.578 777.478 679.673 791.699ZM808.03 760.416V504.416L872.588 490.693L871.805 686.86L932.059 674.052V734.052L808.03 760.416ZM959.047 728.316V472.316L1023.6 458.594L1022.82 654.76L1083.08 641.953V701.953L959.047 728.316ZM1270.95 666.019C1206 679.825 1179.78 655.797 1179.78 595.397L1245.52 581.425C1245.52 605.025 1252.56 614.328 1268.99 610.835C1282.29 608.008 1290.9 596.578 1290.9 582.578C1290.9 540.578 1182.91 591.131 1182.91 495.531C1182.91 463.131 1199.35 417.239 1266.64 402.934C1329.25 389.628 1350.76 420.654 1351.94 470.004L1288.95 483.394C1288.95 460.194 1280.73 455.54 1267.03 458.451C1255.69 460.863 1246.69 469.176 1246.69 483.976C1246.69 523.176 1353.89 480.389 1353.89 564.389C1353.89 598.389 1337.46 651.881 1270.95 666.019ZM1417.02 630.97V436.97L1371.64 446.617V384.617L1526.19 351.767V413.767L1480.8 423.414V617.414L1417.02 630.97ZM1506.42 611.969L1574.89 341.415L1648.44 325.78L1713.78 567.892L1646.88 582.113L1637.49 542.109L1583.88 553.503L1573.32 597.748L1506.42 611.969ZM1594.06 494.94L1626.92 487.955L1610.49 401.847L1594.06 494.94ZM1809.76 551.491C1727.99 568.873 1715.86 499.851 1715.86 439.451C1715.86 379.051 1728.38 304.79 1809.76 287.491C1876.67 273.27 1902.1 315.864 1902.1 379.464L1837.93 393.103C1835.97 351.919 1822.67 346.747 1809.76 349.491C1783.55 355.063 1780.81 394.845 1780.81 425.645C1780.81 463.645 1784.72 495.214 1809.76 489.891C1823.45 486.981 1835.97 479.119 1837.93 433.103L1902.1 419.464C1902.1 485.064 1877.06 537.187 1809.76 551.491ZM1934.67 520.941V264.941L1998.84 251.302V351.702L2036.01 243.401L2115.43 226.519L2053.61 362.059L2119.34 481.687L2039.92 498.57L1998.84 396.502V507.302L1934.67 520.941Z" fill="#F8F5F2"/>
</svg>
