<svg width="1046" height="650" viewBox="0 0 1046 650" fill="none" xmlns="http://www.w3.org/2000/svg">
<path d="M547.805 119.671L221.305 201.176C218.187 201.954 216 204.754 216 207.967V231.517C216 236.076 220.289 239.419 224.711 238.305L330.289 211.695C334.711 210.581 339 213.924 339 218.483V400.567C339 403.764 336.834 406.555 333.737 407.348L221.263 436.152C218.166 436.945 216 439.736 216 442.933V466.563C216 471.108 220.264 474.448 224.677 473.36L701.177 355.813C704.303 355.042 706.5 352.237 706.5 349.017V323.929C706.5 319.387 702.24 316.047 697.829 317.132L385.671 393.868C381.26 394.953 377 391.613 377 387.071V205.991C377 202.767 379.202 199.96 382.333 199.193L551.167 157.807C554.298 157.04 556.5 154.233 556.5 151.009V126.462C556.5 121.909 552.222 118.568 547.805 119.671Z" fill="#F24333"/>
<path d="M814.313 171.157L465.813 257.681C462.692 258.456 460.5 261.258 460.5 264.475V288.561C460.5 293.107 464.765 296.447 469.178 295.357L775.822 219.643C780.235 218.553 784.5 221.893 784.5 226.439V407.535C784.5 410.747 782.314 413.547 779.198 414.326L505.802 482.674C502.686 483.453 500.5 486.253 500.5 489.465V592.563C500.5 597.108 504.764 600.448 509.177 599.359L533.677 593.313C536.803 592.542 539 589.737 539 586.517V518.975C539 515.758 541.192 512.956 544.314 512.181L817.686 444.319C820.808 443.544 823 440.742 823 437.525V177.95C823 173.401 818.729 170.061 814.313 171.157Z" fill="#F24333"/>
<path opacity="0.6" d="M1.5 261.384C1.5 258.21 3.63577 255.433 6.70362 254.618L137.704 219.836C142.146 218.656 146.5 222.005 146.5 226.601V250.525C146.5 253.742 144.308 256.544 141.187 257.319L10.1867 289.843C5.77145 290.94 1.5 287.599 1.5 283.05V261.384Z" fill="#C7C1AA"/>
<path opacity="0.6" d="M645 101.021C645 97.7831 647.22 94.9679 650.369 94.2134L1034.87 2.06849C1039.27 1.01375 1043.5 4.34993 1043.5 8.87574V34.4726C1043.5 37.7133 1041.28 40.5303 1038.12 41.2818L653.623 132.944C649.224 133.993 645 130.657 645 126.135V101.021Z" fill="#C7C1AA"/>
<path opacity="0.6" d="M866 163.977C866 160.759 868.193 157.956 871.316 157.182L1036.82 116.153C1041.23 115.059 1045.5 118.399 1045.5 122.947V152.919C1045.5 156.184 1043.24 159.016 1040.06 159.743L874.559 197.545C870.176 198.546 866 195.216 866 190.721V163.977Z" fill="#C7C1AA"/>
<path opacity="0.6" d="M2 378.463C2 375.252 4.18452 372.453 7.2992 371.673L254.799 309.679C259.218 308.573 263.5 311.914 263.5 316.47V339.996C263.5 343.226 261.29 346.037 258.152 346.799L10.6518 406.899C6.24536 407.969 2 404.631 2 400.097V378.463Z" fill="#C7C1AA"/>
<path opacity="0.6" d="M874.5 280.021C874.5 276.783 876.72 273.968 879.869 273.213L1034.87 236.068C1039.27 235.014 1043.5 238.35 1043.5 242.876V268.947C1043.5 272.2 1041.26 275.024 1038.09 275.764L883.093 311.992C878.702 313.018 874.5 309.685 874.5 305.175V280.021Z" fill="#C7C1AA"/>
<path opacity="0.6" d="M0.5 494.46C0.5 491.251 2.68292 488.452 5.79608 487.671L121.296 458.684C125.716 457.575 130 460.917 130 465.474V489.101C130 492.282 127.855 495.063 124.778 495.871L9.27759 526.195C4.83993 527.361 0.5 524.013 0.5 519.425V494.46Z" fill="#C7C1AA"/>
<path opacity="0.6" d="M877.5 393.006C877.5 389.775 879.711 386.964 882.851 386.203L1033.85 349.597C1038.26 348.529 1042.5 351.866 1042.5 356.4V381.994C1042.5 385.225 1040.29 388.036 1037.15 388.797L886.149 425.403C881.743 426.471 877.5 423.134 877.5 418.6V393.006Z" fill="#C7C1AA"/>
<path opacity="0.6" d="M1.5 614.446C1.5 611.243 3.6743 608.449 6.77923 607.661L408.779 505.712C413.203 504.59 417.5 507.933 417.5 512.497V538.56C417.5 541.76 415.33 544.553 412.228 545.343L10.2284 647.776C5.80277 648.904 1.5 645.56 1.5 640.993V614.446Z" fill="#C7C1AA"/>
</svg>
