<svg width="1221" height="1221" viewBox="0 0 1221 1221" fill="none" xmlns="http://www.w3.org/2000/svg">
<rect width="1221" height="1221" rx="40" fill="#FEFCF4"/>
<path d="M103.557 911.277L94.6317 909.294V899.597H127.248V909.294L118.322 911.277V959.32L127.248 961.303V971H94.6317V961.303L103.557 959.32V911.277ZM210.761 911.277L202.497 909.294V899.597H233.35V909.294L225.086 911.277V971H209.108L177.704 928.357C175.831 925.822 171.534 918.77 168.118 912.599C168.999 919.652 169.771 927.916 169.771 931.001V959.32L178.035 961.303V971H147.182V961.303L155.446 959.32V911.277L147.182 909.294V899.597H173.848L202.828 939.376C204.866 942.13 208.888 949.072 212.084 955.243C211.312 948.191 210.761 940.037 210.761 936.951V911.277ZM270.551 954.141C270.551 955.573 269.89 957.226 269.119 958.108C271.543 959.43 277.052 960.973 282.342 960.973C290.165 960.973 300.523 960.091 300.523 951.717C300.523 945.326 289.945 942.902 280.689 940.918C269.009 938.384 253.472 935.078 253.472 919.541C253.472 904.666 269.009 897.834 284.105 897.834C299.972 897.834 313.746 904.445 313.746 914.142C313.746 919.541 310.109 923.839 304.49 923.839C298.539 923.839 295.564 919.652 295.564 916.015C295.564 914.252 296.005 913.04 296.776 912.049C294.573 910.836 290.385 909.845 284.325 909.845C275.289 909.845 268.017 913.04 268.017 919.211C268.017 925.161 277.714 927.365 287.08 929.348C298.87 931.883 315.068 936.511 315.068 951.937C315.068 964.829 303.388 972.763 283.333 972.763C268.678 972.763 252.48 966.813 252.48 956.124C252.48 949.954 256.778 946.318 261.956 946.318C268.127 946.318 270.551 950.835 270.551 954.141ZM393.538 911.938H377.009V959.32L385.824 961.303V971H353.429V961.303L362.244 959.32V911.938H345.715L344.393 920.313H333.815L332.713 899.597H406.54L405.438 920.313H394.86L393.538 911.938ZM422.885 971V961.303L431.149 959.32V911.277L422.885 909.294V899.597H461.011C477.539 899.597 490.542 905.878 490.542 921.635C490.542 933.536 482.167 939.265 474.123 941.69L485.252 959.32L494.619 961.303V971H476.437L459.358 944.114H445.915V959.32L454.179 961.303V971H422.885ZM445.915 931.772H461.782C470.818 931.772 475.556 928.136 475.556 921.525C475.556 914.693 469.826 911.938 460.79 911.938H445.915V931.772ZM552.023 972.763C527.781 972.763 517.974 957.777 517.974 935.849V911.277L510.261 909.294V899.597H541.004V909.294L532.74 911.277V933.866C532.74 948.301 535.935 960.201 552.354 960.201C568.772 960.201 571.747 948.631 571.747 934.197V911.277L563.483 909.294V899.597H593.895V909.294L586.182 911.277V936.07C586.182 957.998 576.265 972.763 552.023 972.763ZM660.208 936.951L683.237 899.597H707.92V909.294L699.656 911.277V959.32L707.92 961.303V971H676.957V961.303L685.221 959.32V935.849C685.221 932.654 685.662 923.729 686.323 915.795C682.907 922.847 678.83 930.891 677.067 933.646L665.497 951.386H653.376L642.357 933.976C640.594 931.222 636.297 922.957 632.991 915.795C633.652 923.839 634.093 932.985 634.093 936.18V959.32L642.357 961.303V971H611.504V961.303L619.768 959.32V911.277L611.504 909.294V899.597H636.737L660.208 936.951ZM779.78 911.938H750.249V928.577H776.585V940.918H750.249V958.659H780.882L782.204 952.047H792.782L793.884 971H727.22V961.303L735.484 959.32V911.277L727.22 909.294V899.597H792.782L791.68 918.55H781.102L779.78 911.938ZM877.581 911.277L869.317 909.294V899.597H900.17V909.294L891.906 911.277V971H875.928L844.524 928.357C842.651 925.822 838.354 918.77 834.938 912.599C835.819 919.652 836.591 927.916 836.591 931.001V959.32L844.855 961.303V971H814.002V961.303L822.266 959.32V911.277L814.002 909.294V899.597H840.668L869.647 939.376C871.686 942.13 875.708 949.072 878.903 955.243C878.132 948.191 877.581 940.037 877.581 936.951V911.277ZM976.488 911.938H959.96V959.32L968.775 961.303V971H936.379V961.303L945.195 959.32V911.938H928.666L927.344 920.313H916.766L915.664 899.597H989.491L988.389 920.313H977.811L976.488 911.938ZM1058.44 959.761L1054.91 951.937H1021.75L1018.44 959.761L1026.26 961.303V971H996.071V961.303L1003.78 959.32L1032.21 899.377H1044.66L1073.75 959.32L1081.47 961.303V971H1050.62V961.303L1058.44 959.761ZM1033.87 923.949L1026.48 940.257H1049.95L1042.13 923.839C1040.7 920.753 1038.94 915.795 1038.16 912.71C1037.17 915.905 1035.19 920.864 1033.87 923.949ZM1120.59 911.277V958.659H1147.04L1148.47 949.403H1158.94L1160.04 971H1097.56V961.303L1105.82 959.32V911.277L1097.56 909.294V899.597H1128.85V909.294L1120.59 911.277Z" fill="#010101"/>
<path d="M257.356 1128V1118.3L265.621 1116.32V1068.28L257.356 1066.29V1056.6H295.592C315.096 1056.6 325.784 1064.53 325.784 1079.74C325.784 1095.05 314.214 1103.21 294.931 1103.21H280.386V1116.32L291.956 1118.3V1128H257.356ZM280.386 1090.87H295.813C307.052 1090.87 310.909 1086.13 310.909 1079.52C310.909 1073.24 307.052 1068.94 296.143 1068.94H280.386V1090.87ZM344.561 1128V1118.3L352.825 1116.32V1068.28L344.561 1066.29V1056.6H382.687C399.215 1056.6 412.218 1062.88 412.218 1078.64C412.218 1090.54 403.843 1096.27 395.799 1098.69L406.929 1116.32L416.295 1118.3V1128H398.113L381.034 1101.11H367.591V1116.32L375.855 1118.3V1128H344.561ZM367.591 1088.77H383.458C392.494 1088.77 397.232 1085.14 397.232 1078.52C397.232 1071.69 391.502 1068.94 382.466 1068.94H367.591V1088.77ZM473.917 1117.31C490.225 1117.31 497.938 1105.52 497.938 1092.74C497.938 1080.51 490.446 1067.51 473.917 1067.51C457.499 1067.51 449.896 1080.62 449.896 1092.85C449.896 1105.41 457.609 1117.31 473.917 1117.31ZM473.917 1129.76C450.226 1129.76 434.8 1113.68 434.8 1092.96C434.8 1072.46 450.116 1054.83 473.917 1054.83C497.938 1054.83 513.034 1072.24 513.034 1092.85C513.034 1113.57 497.608 1129.76 473.917 1129.76ZM532.852 1128V1118.3L541.116 1116.32V1068.28L532.852 1066.29V1056.6H566.35C593.897 1056.6 607.561 1067.95 607.561 1092.63C607.561 1116.87 590.151 1128 566.129 1128H532.852ZM555.882 1115.66H566.57C584.201 1115.66 592.465 1107.28 592.465 1092.63C592.465 1075 584.09 1068.94 566.24 1068.94H555.882V1115.66ZM666.94 1129.76C642.698 1129.76 632.892 1114.78 632.892 1092.85V1068.28L625.178 1066.29V1056.6H655.921V1066.29L647.657 1068.28V1090.87C647.657 1105.3 650.852 1117.2 667.271 1117.2C683.689 1117.2 686.664 1105.63 686.664 1091.2V1068.28L678.4 1066.29V1056.6H708.812V1066.29L701.099 1068.28V1093.07C701.099 1115 691.182 1129.76 666.94 1129.76ZM767.64 1129.76C742.737 1129.76 726.759 1115.88 726.759 1093.18C726.759 1071.8 742.627 1054.83 765.877 1054.83C781.413 1054.83 793.755 1062 793.755 1072.24C793.755 1076.65 790.449 1081.72 783.507 1081.72C779.099 1081.72 775.243 1078.3 775.243 1074.01C775.243 1072.13 776.124 1070.37 776.896 1069.27C775.243 1068.06 771.166 1067.07 766.538 1067.07C749.679 1067.07 741.855 1080.4 741.855 1092.74C741.855 1106.62 750.891 1117.31 768.08 1117.31C778.218 1117.31 786.592 1113.68 788.135 1113.01L793.314 1124.03C791.551 1124.91 780.642 1129.76 767.64 1129.76ZM872.769 1068.94H856.241V1116.32L865.056 1118.3V1128H832.66V1118.3L841.475 1116.32V1068.94H824.947L823.625 1077.31H813.046L811.945 1056.6H885.772L884.67 1077.31H874.092L872.769 1068.94ZM921.18 1111.14C921.18 1112.57 920.518 1114.23 919.747 1115.11C922.171 1116.43 927.681 1117.97 932.97 1117.97C940.793 1117.97 951.151 1117.09 951.151 1108.72C951.151 1102.33 940.573 1099.9 931.317 1097.92C919.637 1095.38 904.1 1092.08 904.1 1076.54C904.1 1061.67 919.637 1054.83 934.733 1054.83C950.6 1054.83 964.374 1061.45 964.374 1071.14C964.374 1076.54 960.738 1080.84 955.118 1080.84C949.168 1080.84 946.193 1076.65 946.193 1073.02C946.193 1071.25 946.633 1070.04 947.405 1069.05C945.201 1067.84 941.014 1066.84 934.953 1066.84C925.918 1066.84 918.645 1070.04 918.645 1076.21C918.645 1082.16 928.342 1084.36 937.708 1086.35C949.498 1088.88 965.696 1093.51 965.696 1108.94C965.696 1121.83 954.016 1129.76 933.962 1129.76C919.306 1129.76 903.108 1123.81 903.108 1113.12C903.108 1106.95 907.406 1103.32 912.585 1103.32C918.755 1103.32 921.18 1107.84 921.18 1111.14Z" fill="#010101"/>
<path d="M635.805 224.671L309.305 306.176C306.187 306.954 304 309.754 304 312.967V336.517C304 341.076 308.289 344.419 312.711 343.305L418.289 316.695C422.711 315.581 427 318.924 427 323.483V505.567C427 508.764 424.834 511.555 421.737 512.348L309.263 541.152C306.166 541.945 304 544.736 304 547.933V571.563C304 576.108 308.264 579.448 312.677 578.36L789.177 460.813C792.303 460.042 794.5 457.237 794.5 454.017V428.929C794.5 424.387 790.24 421.047 785.829 422.132L473.671 498.868C469.26 499.953 465 496.613 465 492.071V310.991C465 307.767 467.202 304.96 470.333 304.193L639.167 262.807C642.298 262.04 644.5 259.233 644.5 256.009V231.462C644.5 226.909 640.222 223.568 635.805 224.671Z" fill="#F24333"/>
<path d="M902.313 276.157L553.813 362.681C550.692 363.456 548.5 366.258 548.5 369.475V393.561C548.5 398.107 552.765 401.447 557.178 400.357L863.822 324.643C868.235 323.553 872.5 326.893 872.5 331.439V512.535C872.5 515.747 870.314 518.547 867.198 519.326L593.802 587.674C590.686 588.453 588.5 591.253 588.5 594.465V697.563C588.5 702.108 592.764 705.448 597.177 704.359L621.677 698.313C624.803 697.542 627 694.737 627 691.517V623.975C627 620.758 629.192 617.956 632.314 617.181L905.686 549.319C908.808 548.544 911 545.742 911 542.525V282.95C911 278.401 906.729 275.061 902.313 276.157Z" fill="#F24333"/>
<path opacity="0.6" d="M89.5 366.384C89.5 363.21 91.6358 360.433 94.7036 359.618L225.704 324.836C230.146 323.656 234.5 327.005 234.5 331.601V355.525C234.5 358.742 232.308 361.544 229.187 362.319L98.1867 394.843C93.7715 395.94 89.5 392.599 89.5 388.05V366.384Z" fill="#C7C1AA"/>
<path opacity="0.6" d="M733 206.021C733 202.783 735.22 199.968 738.369 199.213L1122.87 107.068C1127.27 106.014 1131.5 109.35 1131.5 113.876V139.473C1131.5 142.713 1129.28 145.53 1126.12 146.282L741.623 237.944C737.224 238.993 733 235.657 733 231.135V206.021Z" fill="#C7C1AA"/>
<path opacity="0.6" d="M954 268.977C954 265.759 956.193 262.956 959.316 262.182L1124.82 221.153C1129.23 220.059 1133.5 223.399 1133.5 227.947V257.919C1133.5 261.184 1131.24 264.016 1128.06 264.743L962.559 302.545C958.176 303.546 954 300.216 954 295.721V268.977Z" fill="#C7C1AA"/>
<path opacity="0.6" d="M90 483.463C90 480.252 92.1845 477.453 95.2992 476.673L342.799 414.679C347.218 413.573 351.5 416.914 351.5 421.47V444.996C351.5 448.226 349.29 451.037 346.152 451.799L98.6518 511.899C94.2454 512.969 90 509.631 90 505.097V483.463Z" fill="#C7C1AA"/>
<path opacity="0.6" d="M962.5 385.021C962.5 381.783 964.72 378.968 967.869 378.213L1122.87 341.068C1127.27 340.014 1131.5 343.35 1131.5 347.876V373.947C1131.5 377.2 1129.26 380.024 1126.09 380.764L971.093 416.992C966.702 418.018 962.5 414.685 962.5 410.175V385.021Z" fill="#C7C1AA"/>
<path opacity="0.6" d="M88.5 599.46C88.5 596.251 90.6829 593.452 93.7961 592.671L209.296 563.684C213.716 562.575 218 565.917 218 570.474V594.101C218 597.282 215.855 600.063 212.778 600.871L97.2776 631.195C92.8399 632.361 88.5 629.013 88.5 624.425V599.46Z" fill="#C7C1AA"/>
<path opacity="0.6" d="M965.5 498.006C965.5 494.775 967.711 491.964 970.851 491.203L1121.85 454.597C1126.26 453.529 1130.5 456.866 1130.5 461.4V486.994C1130.5 490.225 1128.29 493.036 1125.15 493.797L974.149 530.403C969.743 531.471 965.5 528.134 965.5 523.6V498.006Z" fill="#C7C1AA"/>
<path opacity="0.6" d="M89.5 719.446C89.5 716.243 91.6743 713.449 94.7792 712.661L496.779 610.712C501.203 609.59 505.5 612.933 505.5 617.497V643.56C505.5 646.76 503.33 649.553 500.228 650.343L98.2284 752.776C93.8028 753.904 89.5 750.56 89.5 745.993V719.446Z" fill="#C7C1AA"/>
</svg>
