<svg width="1245" height="1245" viewBox="0 0 1245 1245" fill="none" xmlns="http://www.w3.org/2000/svg">
<rect x="6" y="6" width="1233" height="1233" rx="46" fill="#052B38" stroke="#064B63" stroke-width="12"/>
<mask id="path-2-outside-1_20_37" maskUnits="userSpaceOnUse" x="105" y="908" width="1069" height="78" fill="black">
<rect fill="white" x="105" y="908" width="1069" height="78"/>
<path d="M115.557 923.277L106.632 921.294V911.597H139.248V921.294L130.322 923.277V971.32L139.248 973.303V983H106.632V973.303L115.557 971.32V923.277ZM222.761 923.277L214.497 921.294V911.597H245.35V921.294L237.086 923.277V983H221.108L189.704 940.357C187.831 937.822 183.534 930.77 180.118 924.599C180.999 931.652 181.771 939.916 181.771 943.001V971.32L190.035 973.303V983H159.182V973.303L167.446 971.32V923.277L159.182 921.294V911.597H185.848L214.828 951.376C216.866 954.13 220.888 961.072 224.084 967.243C223.312 960.191 222.761 952.037 222.761 948.951V923.277ZM282.551 966.141C282.551 967.573 281.89 969.226 281.119 970.108C283.543 971.43 289.052 972.973 294.342 972.973C302.165 972.973 312.523 972.091 312.523 963.717C312.523 957.326 301.945 954.902 292.689 952.918C281.009 950.384 265.472 947.078 265.472 931.541C265.472 916.666 281.009 909.834 296.105 909.834C311.972 909.834 325.746 916.445 325.746 926.142C325.746 931.541 322.109 935.839 316.49 935.839C310.539 935.839 307.564 931.652 307.564 928.015C307.564 926.252 308.005 925.04 308.776 924.049C306.573 922.836 302.385 921.845 296.325 921.845C287.289 921.845 280.017 925.04 280.017 931.211C280.017 937.161 289.714 939.365 299.08 941.348C310.87 943.883 327.068 948.511 327.068 963.937C327.068 976.829 315.388 984.763 295.333 984.763C280.678 984.763 264.48 978.813 264.48 968.124C264.48 961.954 268.778 958.318 273.956 958.318C280.127 958.318 282.551 962.835 282.551 966.141ZM405.538 923.938H389.009V971.32L397.824 973.303V983H365.429V973.303L374.244 971.32V923.938H357.715L356.393 932.313H345.815L344.713 911.597H418.54L417.438 932.313H406.86L405.538 923.938ZM434.885 983V973.303L443.149 971.32V923.277L434.885 921.294V911.597H473.011C489.539 911.597 502.542 917.878 502.542 933.635C502.542 945.536 494.167 951.265 486.123 953.69L497.252 971.32L506.619 973.303V983H488.437L471.358 956.114H457.915V971.32L466.179 973.303V983H434.885ZM457.915 943.772H473.782C482.818 943.772 487.556 940.136 487.556 933.525C487.556 926.693 481.826 923.938 472.79 923.938H457.915V943.772ZM564.023 984.763C539.781 984.763 529.974 969.777 529.974 947.849V923.277L522.261 921.294V911.597H553.004V921.294L544.74 923.277V945.866C544.74 960.301 547.935 972.201 564.354 972.201C580.772 972.201 583.747 960.631 583.747 946.197V923.277L575.483 921.294V911.597H605.895V921.294L598.182 923.277V948.07C598.182 969.998 588.265 984.763 564.023 984.763ZM672.208 948.951L695.237 911.597H719.92V921.294L711.656 923.277V971.32L719.92 973.303V983H688.957V973.303L697.221 971.32V947.849C697.221 944.654 697.662 935.729 698.323 927.795C694.907 934.847 690.83 942.891 689.067 945.646L677.497 963.386H665.376L654.357 945.976C652.594 943.222 648.297 934.957 644.991 927.795C645.652 935.839 646.093 944.985 646.093 948.18V971.32L654.357 973.303V983H623.504V973.303L631.768 971.32V923.277L623.504 921.294V911.597H648.737L672.208 948.951ZM791.78 923.938H762.249V940.577H788.585V952.918H762.249V970.659H792.882L794.204 964.047H804.782L805.884 983H739.22V973.303L747.484 971.32V923.277L739.22 921.294V911.597H804.782L803.68 930.55H793.102L791.78 923.938ZM889.581 923.277L881.317 921.294V911.597H912.17V921.294L903.906 923.277V983H887.928L856.524 940.357C854.651 937.822 850.354 930.77 846.938 924.599C847.819 931.652 848.591 939.916 848.591 943.001V971.32L856.855 973.303V983H826.002V973.303L834.266 971.32V923.277L826.002 921.294V911.597H852.668L881.647 951.376C883.686 954.13 887.708 961.072 890.903 967.243C890.132 960.191 889.581 952.037 889.581 948.951V923.277ZM988.488 923.938H971.96V971.32L980.775 973.303V983H948.379V973.303L957.195 971.32V923.938H940.666L939.344 932.313H928.766L927.664 911.597H1001.49L1000.39 932.313H989.811L988.488 923.938ZM1070.44 971.761L1066.91 963.937H1033.75L1030.44 971.761L1038.26 973.303V983H1008.07V973.303L1015.78 971.32L1044.21 911.377H1056.66L1085.75 971.32L1093.47 973.303V983H1062.62V973.303L1070.44 971.761ZM1045.87 935.949L1038.48 952.257H1061.95L1054.13 935.839C1052.7 932.753 1050.94 927.795 1050.16 924.71C1049.17 927.905 1047.19 932.864 1045.87 935.949ZM1132.59 923.277V970.659H1159.04L1160.47 961.403H1170.94L1172.04 983H1109.56V973.303L1117.82 971.32V923.277L1109.56 921.294V911.597H1140.85V921.294L1132.59 923.277Z"/>
</mask>
<path d="M115.557 923.277L106.632 921.294V911.597H139.248V921.294L130.322 923.277V971.32L139.248 973.303V983H106.632V973.303L115.557 971.32V923.277ZM222.761 923.277L214.497 921.294V911.597H245.35V921.294L237.086 923.277V983H221.108L189.704 940.357C187.831 937.822 183.534 930.77 180.118 924.599C180.999 931.652 181.771 939.916 181.771 943.001V971.32L190.035 973.303V983H159.182V973.303L167.446 971.32V923.277L159.182 921.294V911.597H185.848L214.828 951.376C216.866 954.13 220.888 961.072 224.084 967.243C223.312 960.191 222.761 952.037 222.761 948.951V923.277ZM282.551 966.141C282.551 967.573 281.89 969.226 281.119 970.108C283.543 971.43 289.052 972.973 294.342 972.973C302.165 972.973 312.523 972.091 312.523 963.717C312.523 957.326 301.945 954.902 292.689 952.918C281.009 950.384 265.472 947.078 265.472 931.541C265.472 916.666 281.009 909.834 296.105 909.834C311.972 909.834 325.746 916.445 325.746 926.142C325.746 931.541 322.109 935.839 316.49 935.839C310.539 935.839 307.564 931.652 307.564 928.015C307.564 926.252 308.005 925.04 308.776 924.049C306.573 922.836 302.385 921.845 296.325 921.845C287.289 921.845 280.017 925.04 280.017 931.211C280.017 937.161 289.714 939.365 299.08 941.348C310.87 943.883 327.068 948.511 327.068 963.937C327.068 976.829 315.388 984.763 295.333 984.763C280.678 984.763 264.48 978.813 264.48 968.124C264.48 961.954 268.778 958.318 273.956 958.318C280.127 958.318 282.551 962.835 282.551 966.141ZM405.538 923.938H389.009V971.32L397.824 973.303V983H365.429V973.303L374.244 971.32V923.938H357.715L356.393 932.313H345.815L344.713 911.597H418.54L417.438 932.313H406.86L405.538 923.938ZM434.885 983V973.303L443.149 971.32V923.277L434.885 921.294V911.597H473.011C489.539 911.597 502.542 917.878 502.542 933.635C502.542 945.536 494.167 951.265 486.123 953.69L497.252 971.32L506.619 973.303V983H488.437L471.358 956.114H457.915V971.32L466.179 973.303V983H434.885ZM457.915 943.772H473.782C482.818 943.772 487.556 940.136 487.556 933.525C487.556 926.693 481.826 923.938 472.79 923.938H457.915V943.772ZM564.023 984.763C539.781 984.763 529.974 969.777 529.974 947.849V923.277L522.261 921.294V911.597H553.004V921.294L544.74 923.277V945.866C544.74 960.301 547.935 972.201 564.354 972.201C580.772 972.201 583.747 960.631 583.747 946.197V923.277L575.483 921.294V911.597H605.895V921.294L598.182 923.277V948.07C598.182 969.998 588.265 984.763 564.023 984.763ZM672.208 948.951L695.237 911.597H719.92V921.294L711.656 923.277V971.32L719.92 973.303V983H688.957V973.303L697.221 971.32V947.849C697.221 944.654 697.662 935.729 698.323 927.795C694.907 934.847 690.83 942.891 689.067 945.646L677.497 963.386H665.376L654.357 945.976C652.594 943.222 648.297 934.957 644.991 927.795C645.652 935.839 646.093 944.985 646.093 948.18V971.32L654.357 973.303V983H623.504V973.303L631.768 971.32V923.277L623.504 921.294V911.597H648.737L672.208 948.951ZM791.78 923.938H762.249V940.577H788.585V952.918H762.249V970.659H792.882L794.204 964.047H804.782L805.884 983H739.22V973.303L747.484 971.32V923.277L739.22 921.294V911.597H804.782L803.68 930.55H793.102L791.78 923.938ZM889.581 923.277L881.317 921.294V911.597H912.17V921.294L903.906 923.277V983H887.928L856.524 940.357C854.651 937.822 850.354 930.77 846.938 924.599C847.819 931.652 848.591 939.916 848.591 943.001V971.32L856.855 973.303V983H826.002V973.303L834.266 971.32V923.277L826.002 921.294V911.597H852.668L881.647 951.376C883.686 954.13 887.708 961.072 890.903 967.243C890.132 960.191 889.581 952.037 889.581 948.951V923.277ZM988.488 923.938H971.96V971.32L980.775 973.303V983H948.379V973.303L957.195 971.32V923.938H940.666L939.344 932.313H928.766L927.664 911.597H1001.49L1000.39 932.313H989.811L988.488 923.938ZM1070.44 971.761L1066.91 963.937H1033.75L1030.44 971.761L1038.26 973.303V983H1008.07V973.303L1015.78 971.32L1044.21 911.377H1056.66L1085.75 971.32L1093.47 973.303V983H1062.62V973.303L1070.44 971.761ZM1045.87 935.949L1038.48 952.257H1061.95L1054.13 935.839C1052.7 932.753 1050.94 927.795 1050.16 924.71C1049.17 927.905 1047.19 932.864 1045.87 935.949ZM1132.59 923.277V970.659H1159.04L1160.47 961.403H1170.94L1172.04 983H1109.56V973.303L1117.82 971.32V923.277L1109.56 921.294V911.597H1140.85V921.294L1132.59 923.277Z" fill="#FEFCF4"/>
<path d="M115.557 923.277H116.557V922.475L115.774 922.301L115.557 923.277ZM106.632 921.294H105.632V922.096L106.415 922.27L106.632 921.294ZM106.632 911.597V910.597H105.632V911.597H106.632ZM139.248 911.597H140.248V910.597H139.248V911.597ZM139.248 921.294L139.465 922.27L140.248 922.096V921.294H139.248ZM130.322 923.277L130.106 922.301L129.322 922.475V923.277H130.322ZM130.322 971.32H129.322V972.122L130.106 972.296L130.322 971.32ZM139.248 973.303H140.248V972.501L139.465 972.327L139.248 973.303ZM139.248 983V984H140.248V983H139.248ZM106.632 983H105.632V984H106.632V983ZM106.632 973.303L106.415 972.327L105.632 972.501V973.303H106.632ZM115.557 971.32L115.774 972.296L116.557 972.122V971.32H115.557ZM115.774 922.301L106.849 920.318L106.415 922.27L115.34 924.253L115.774 922.301ZM107.632 921.294V911.597H105.632V921.294H107.632ZM106.632 912.597H139.248V910.597H106.632V912.597ZM138.248 911.597V921.294H140.248V911.597H138.248ZM139.031 920.318L130.106 922.301L130.539 924.253L139.465 922.27L139.031 920.318ZM129.322 923.277V971.32H131.322V923.277H129.322ZM130.106 972.296L139.031 974.279L139.465 972.327L130.539 970.344L130.106 972.296ZM138.248 973.303V983H140.248V973.303H138.248ZM139.248 982H106.632V984H139.248V982ZM107.632 983V973.303H105.632V983H107.632ZM106.849 974.279L115.774 972.296L115.34 970.344L106.415 972.327L106.849 974.279ZM116.557 971.32V923.277H114.557V971.32H116.557ZM222.761 923.277H223.761V922.489L222.995 922.305L222.761 923.277ZM214.497 921.294H213.497V922.082L214.264 922.266L214.497 921.294ZM214.497 911.597V910.597H213.497V911.597H214.497ZM245.35 911.597H246.35V910.597H245.35V911.597ZM245.35 921.294L245.584 922.266L246.35 922.082V921.294H245.35ZM237.086 923.277L236.853 922.305L236.086 922.489V923.277H237.086ZM237.086 983V984H238.086V983H237.086ZM221.108 983L220.303 983.593L220.603 984H221.108V983ZM189.704 940.357L190.51 939.764L190.509 939.762L189.704 940.357ZM180.118 924.599L180.993 924.115L179.126 924.723L180.118 924.599ZM181.771 971.32H180.771V972.108L181.537 972.292L181.771 971.32ZM190.035 973.303H191.035V972.515L190.268 972.331L190.035 973.303ZM190.035 983V984H191.035V983H190.035ZM159.182 983H158.182V984H159.182V983ZM159.182 973.303L158.948 972.331L158.182 972.515V973.303H159.182ZM167.446 971.32L167.679 972.292L168.446 972.108V971.32H167.446ZM167.446 923.277H168.446V922.489L167.679 922.305L167.446 923.277ZM159.182 921.294H158.182V922.082L158.948 922.266L159.182 921.294ZM159.182 911.597V910.597H158.182V911.597H159.182ZM185.848 911.597L186.656 911.008L186.356 910.597H185.848V911.597ZM214.828 951.376L214.019 951.964L214.024 951.97L214.828 951.376ZM224.084 967.243L223.196 967.703L225.078 967.134L224.084 967.243ZM222.995 922.305L214.73 920.321L214.264 922.266L222.528 924.25L222.995 922.305ZM215.497 921.294V911.597H213.497V921.294H215.497ZM214.497 912.597H245.35V910.597H214.497V912.597ZM244.35 911.597V921.294H246.35V911.597H244.35ZM245.117 920.321L236.853 922.305L237.319 924.25L245.584 922.266L245.117 920.321ZM236.086 923.277V983H238.086V923.277H236.086ZM237.086 982H221.108V984H237.086V982ZM221.914 982.407L190.51 939.764L188.899 940.95L220.303 983.593L221.914 982.407ZM190.509 939.762C188.677 937.284 184.406 930.281 180.993 924.115L179.243 925.084C182.661 931.259 186.985 938.36 188.9 940.951L190.509 939.762ZM179.126 924.723C180.008 931.781 180.771 939.987 180.771 943.001H182.771C182.771 939.845 181.991 931.522 181.11 924.475L179.126 924.723ZM180.771 943.001V971.32H182.771V943.001H180.771ZM181.537 972.292L189.802 974.276L190.268 972.331L182.004 970.348L181.537 972.292ZM189.035 973.303V983H191.035V973.303H189.035ZM190.035 982H159.182V984H190.035V982ZM160.182 983V973.303H158.182V983H160.182ZM159.415 974.276L167.679 972.292L167.213 970.348L158.948 972.331L159.415 974.276ZM168.446 971.32V923.277H166.446V971.32H168.446ZM167.679 922.305L159.415 920.321L158.948 922.266L167.213 924.25L167.679 922.305ZM160.182 921.294V911.597H158.182V921.294H160.182ZM159.182 912.597H185.848V910.597H159.182V912.597ZM185.039 912.186L214.019 951.964L215.636 950.787L186.656 911.008L185.039 912.186ZM214.024 951.97C216.011 954.656 220.002 961.536 223.196 967.703L224.972 966.783C221.774 960.608 217.721 953.605 215.631 950.781L214.024 951.97ZM225.078 967.134C224.308 960.093 223.761 951.982 223.761 948.951H221.761C221.761 952.091 222.317 960.288 223.089 967.352L225.078 967.134ZM223.761 948.951V923.277H221.761V948.951H223.761ZM281.119 970.108L280.366 969.449L279.545 970.388L280.64 970.986L281.119 970.108ZM292.689 952.918L292.477 953.895L292.479 953.896L292.689 952.918ZM308.776 924.049L309.566 924.662L310.285 923.737L309.258 923.172L308.776 924.049ZM299.08 941.348L299.29 940.371L299.287 940.37L299.08 941.348ZM281.551 966.141C281.551 967.335 280.975 968.753 280.366 969.449L281.871 970.766C282.805 969.7 283.551 967.812 283.551 966.141H281.551ZM280.64 970.986C283.233 972.4 288.912 973.973 294.342 973.973V971.973C289.193 971.973 283.853 970.46 281.598 969.23L280.64 970.986ZM294.342 973.973C298.257 973.973 302.956 973.758 306.701 972.427C308.584 971.759 310.294 970.785 311.538 969.351C312.798 967.898 313.523 966.036 313.523 963.717H311.523C311.523 965.585 310.953 966.973 310.027 968.041C309.084 969.128 307.715 969.945 306.031 970.543C302.641 971.747 298.249 971.973 294.342 971.973V973.973ZM313.523 963.717C313.523 959.859 310.315 957.417 306.475 955.748C302.566 954.048 297.505 952.928 292.898 951.94L292.479 953.896C297.129 954.892 301.985 955.976 305.678 957.582C309.442 959.218 311.523 961.183 311.523 963.717H313.523ZM292.901 951.941C287.023 950.666 280.383 949.232 275.2 946.24C272.626 944.754 270.453 942.905 268.922 940.537C267.396 938.177 266.472 935.249 266.472 931.541H264.472C264.472 935.602 265.49 938.914 267.242 941.623C268.989 944.324 271.43 946.372 274.2 947.972C279.705 951.15 286.674 952.636 292.477 953.895L292.901 951.941ZM266.472 931.541C266.472 924.517 270.114 919.384 275.653 915.96C281.225 912.516 288.687 910.834 296.105 910.834V908.834C288.426 908.834 280.572 910.568 274.601 914.259C268.598 917.97 264.472 923.69 264.472 931.541H266.472ZM296.105 910.834C303.915 910.834 311.157 912.464 316.408 915.236C321.684 918.021 324.746 921.829 324.746 926.142H326.746C326.746 920.758 322.92 916.412 317.342 913.467C311.74 910.51 304.161 908.834 296.105 908.834V910.834ZM324.746 926.142C324.746 931.068 321.481 934.839 316.49 934.839V936.839C322.737 936.839 326.746 932.015 326.746 926.142H324.746ZM316.49 934.839C311.1 934.839 308.564 931.108 308.564 928.015H306.564C306.564 932.195 309.978 936.839 316.49 936.839V934.839ZM308.564 928.015C308.564 926.443 308.949 925.455 309.566 924.662L307.987 923.435C307.061 924.625 306.564 926.061 306.564 928.015H308.564ZM309.258 923.172C306.841 921.843 302.459 920.845 296.325 920.845V922.845C302.312 922.845 306.304 923.83 308.294 924.925L309.258 923.172ZM296.325 920.845C291.71 920.845 287.454 921.658 284.312 923.331C281.146 925.018 279.017 927.649 279.017 931.211H281.017C281.017 928.602 282.524 926.55 285.253 925.096C288.006 923.63 291.904 922.845 296.325 922.845V920.845ZM279.017 931.211C279.017 934.848 282.004 937.125 285.642 938.686C289.344 940.275 294.213 941.34 298.873 942.327L299.287 940.37C294.58 939.373 289.917 938.345 286.43 936.848C282.879 935.324 281.017 933.524 281.017 931.211H279.017ZM298.87 942.326C304.761 943.592 311.607 945.356 316.971 948.66C322.285 951.933 326.068 956.662 326.068 963.937H328.068C328.068 955.786 323.752 950.488 318.02 946.957C312.337 943.456 305.189 941.639 299.29 940.371L298.87 942.326ZM326.068 963.937C326.068 970.032 323.33 974.932 318.169 978.351C312.964 981.799 305.249 983.763 295.333 983.763V985.763C305.472 985.763 313.624 983.761 319.273 980.018C324.966 976.247 328.068 970.735 328.068 963.937H326.068ZM295.333 983.763C288.121 983.763 280.562 982.296 274.844 979.55C269.086 976.786 265.48 972.887 265.48 968.124H263.48C263.48 974.051 267.973 978.47 273.978 981.353C280.023 984.255 287.89 985.763 295.333 985.763V983.763ZM265.48 968.124C265.48 965.282 266.464 963.097 267.975 961.623C269.492 960.142 271.602 959.318 273.956 959.318V957.318C271.132 957.318 268.504 958.311 266.578 960.191C264.645 962.078 263.48 964.796 263.48 968.124H265.48ZM273.956 959.318C276.774 959.318 278.645 960.338 279.822 961.656C281.022 962.999 281.551 964.712 281.551 966.141H283.551C283.551 964.264 282.869 962.065 281.314 960.324C279.736 958.556 277.31 957.318 273.956 957.318V959.318ZM405.538 923.938L406.525 923.782L406.392 922.938H405.538V923.938ZM389.009 923.938V922.938H388.009V923.938H389.009ZM389.009 971.32H388.009V972.12L388.79 972.296L389.009 971.32ZM397.824 973.303H398.824V972.503L398.044 972.328L397.824 973.303ZM397.824 983V984H398.824V983H397.824ZM365.429 983H364.429V984H365.429V983ZM365.429 973.303L365.209 972.328L364.429 972.503V973.303H365.429ZM374.244 971.32L374.463 972.296L375.244 972.12V971.32H374.244ZM374.244 923.938H375.244V922.938H374.244V923.938ZM357.715 923.938V922.938H356.861L356.727 923.782L357.715 923.938ZM356.393 932.313V933.313H357.247L357.381 932.469L356.393 932.313ZM345.815 932.313L344.816 932.366L344.867 933.313H345.815V932.313ZM344.713 911.597V910.597H343.658L343.714 911.65L344.713 911.597ZM418.54 911.597L419.539 911.65L419.595 910.597H418.54V911.597ZM417.438 932.313V933.313H418.386L418.437 932.366L417.438 932.313ZM406.86 932.313L405.872 932.469L406.005 933.313H406.86V932.313ZM405.538 922.938H389.009V924.938H405.538V922.938ZM388.009 923.938V971.32H390.009V923.938H388.009ZM388.79 972.296L397.605 974.279L398.044 972.328L389.229 970.344L388.79 972.296ZM396.824 973.303V983H398.824V973.303H396.824ZM397.824 982H365.429V984H397.824V982ZM366.429 983V973.303H364.429V983H366.429ZM365.648 974.279L374.463 972.296L374.024 970.344L365.209 972.328L365.648 974.279ZM375.244 971.32V923.938H373.244V971.32H375.244ZM374.244 922.938H357.715V924.938H374.244V922.938ZM356.727 923.782L355.405 932.157L357.381 932.469L358.703 924.094L356.727 923.782ZM356.393 931.313H345.815V933.313H356.393V931.313ZM346.813 932.26L345.711 911.544L343.714 911.65L344.816 932.366L346.813 932.26ZM344.713 912.597H418.54V910.597H344.713V912.597ZM417.541 911.544L416.439 932.26L418.437 932.366L419.539 911.65L417.541 911.544ZM417.438 931.313H406.86V933.313H417.438V931.313ZM407.848 932.157L406.525 923.782L404.55 924.094L405.872 932.469L407.848 932.157ZM434.885 983H433.885V984H434.885V983ZM434.885 973.303L434.652 972.331L433.885 972.515V973.303H434.885ZM443.149 971.32L443.383 972.292L444.149 972.108V971.32H443.149ZM443.149 923.277H444.149V922.489L443.383 922.305L443.149 923.277ZM434.885 921.294H433.885V922.082L434.652 922.266L434.885 921.294ZM434.885 911.597V910.597H433.885V911.597H434.885ZM486.123 953.69L485.835 952.732L484.576 953.111L485.278 954.223L486.123 953.69ZM497.252 971.32L496.407 971.854L496.632 972.211L497.045 972.298L497.252 971.32ZM506.619 973.303H507.619V972.493L506.826 972.325L506.619 973.303ZM506.619 983V984H507.619V983H506.619ZM488.437 983L487.593 983.536L487.888 984H488.437V983ZM471.358 956.114L472.202 955.578L471.907 955.114H471.358V956.114ZM457.915 956.114V955.114H456.915V956.114H457.915ZM457.915 971.32H456.915V972.108L457.681 972.292L457.915 971.32ZM466.179 973.303H467.179V972.515L466.412 972.331L466.179 973.303ZM466.179 983V984H467.179V983H466.179ZM457.915 943.772H456.915V944.772H457.915V943.772ZM457.915 923.938V922.938H456.915V923.938H457.915ZM435.885 983V973.303H433.885V983H435.885ZM435.118 974.276L443.383 972.292L442.916 970.348L434.652 972.331L435.118 974.276ZM444.149 971.32V923.277H442.149V971.32H444.149ZM443.383 922.305L435.118 920.321L434.652 922.266L442.916 924.25L443.383 922.305ZM435.885 921.294V911.597H433.885V921.294H435.885ZM434.885 912.597H473.011V910.597H434.885V912.597ZM473.011 912.597C481.173 912.597 488.332 914.152 493.42 917.54C498.45 920.888 501.542 926.08 501.542 933.635H503.542C503.542 925.432 500.132 919.606 494.528 915.875C488.983 912.183 481.377 910.597 473.011 910.597V912.597ZM501.542 933.635C501.542 939.324 499.55 943.484 496.628 946.523C493.685 949.584 489.752 951.552 485.835 952.732L486.412 954.647C490.538 953.403 494.815 951.294 498.07 947.909C501.346 944.502 503.542 939.846 503.542 933.635H501.542ZM485.278 954.223L496.407 971.854L498.098 970.786L486.969 953.156L485.278 954.223ZM497.045 972.298L506.411 974.282L506.826 972.325L497.46 970.342L497.045 972.298ZM505.619 973.303V983H507.619V973.303H505.619ZM506.619 982H488.437V984H506.619V982ZM489.281 982.464L472.202 955.578L470.514 956.65L487.593 983.536L489.281 982.464ZM471.358 955.114H457.915V957.114H471.358V955.114ZM456.915 956.114V971.32H458.915V956.114H456.915ZM457.681 972.292L465.946 974.276L466.412 972.331L458.148 970.348L457.681 972.292ZM465.179 973.303V983H467.179V973.303H465.179ZM466.179 982H434.885V984H466.179V982ZM457.915 944.772H473.782V942.772H457.915V944.772ZM473.782 944.772C478.41 944.772 482.101 943.845 484.657 941.928C487.26 939.976 488.556 937.096 488.556 933.525H486.556C486.556 936.565 485.483 938.809 483.457 940.328C481.385 941.882 478.189 942.772 473.782 942.772V944.772ZM488.556 933.525C488.556 929.768 486.948 927.042 484.077 925.313C481.286 923.632 477.378 922.938 472.79 922.938V924.938C477.238 924.938 480.713 925.622 483.045 927.026C485.298 928.383 486.556 930.45 486.556 933.525H488.556ZM472.79 922.938H457.915V924.938H472.79V922.938ZM456.915 923.938V943.772H458.915V923.938H456.915ZM529.974 923.277H530.974V922.502L530.223 922.309L529.974 923.277ZM522.261 921.294H521.261V922.069L522.012 922.262L522.261 921.294ZM522.261 911.597V910.597H521.261V911.597H522.261ZM553.004 911.597H554.004V910.597H553.004V911.597ZM553.004 921.294L553.237 922.266L554.004 922.082V921.294H553.004ZM544.74 923.277L544.507 922.305L543.74 922.489V923.277H544.74ZM583.747 923.277H584.747V922.489L583.98 922.305L583.747 923.277ZM575.483 921.294H574.483V922.082L575.249 922.266L575.483 921.294ZM575.483 911.597V910.597H574.483V911.597H575.483ZM605.895 911.597H606.895V910.597H605.895V911.597ZM605.895 921.294L606.144 922.262L606.895 922.069V921.294H605.895ZM598.182 923.277L597.933 922.309L597.182 922.502V923.277H598.182ZM564.023 983.763C552.118 983.763 543.918 980.092 538.672 973.884C533.4 967.645 530.974 958.685 530.974 947.849H528.974C528.974 958.942 531.452 968.439 537.144 975.175C542.862 981.941 551.687 985.763 564.023 985.763V983.763ZM530.974 947.849V923.277H528.974V947.849H530.974ZM530.223 922.309L522.51 920.325L522.012 922.262L529.725 924.246L530.223 922.309ZM523.261 921.294V911.597H521.261V921.294H523.261ZM522.261 912.597H553.004V910.597H522.261V912.597ZM552.004 911.597V921.294H554.004V911.597H552.004ZM552.771 920.321L544.507 922.305L544.973 924.25L553.237 922.266L552.771 920.321ZM543.74 923.277V945.866H545.74V923.277H543.74ZM543.74 945.866C543.74 953.112 544.532 959.932 547.531 964.959C550.594 970.094 555.858 973.201 564.354 973.201V971.201C556.431 971.201 551.888 968.359 549.249 963.934C546.545 959.402 545.74 953.055 545.74 945.866H543.74ZM564.354 973.201C572.838 973.201 578.054 970.184 581.066 965.124C584.012 960.176 584.747 953.434 584.747 946.197H582.747C582.747 953.394 581.995 959.654 579.348 964.101C576.768 968.434 572.287 971.201 564.354 971.201V973.201ZM584.747 946.197V923.277H582.747V946.197H584.747ZM583.98 922.305L575.716 920.321L575.249 922.266L583.514 924.25L583.98 922.305ZM576.483 921.294V911.597H574.483V921.294H576.483ZM575.483 912.597H605.895V910.597H575.483V912.597ZM604.895 911.597V921.294H606.895V911.597H604.895ZM605.646 920.325L597.933 922.309L598.431 924.246L606.144 922.262L605.646 920.325ZM597.182 923.277V948.07H599.182V923.277H597.182ZM597.182 948.07C597.182 958.903 594.73 967.805 589.434 973.989C584.161 980.144 575.933 983.763 564.023 983.763V985.763C576.355 985.763 585.206 981.999 590.953 975.29C596.675 968.609 599.182 959.165 599.182 948.07H597.182ZM672.208 948.951L671.361 949.483L672.216 950.844L673.059 949.476L672.208 948.951ZM695.237 911.597V910.597H694.679L694.386 911.072L695.237 911.597ZM719.92 911.597H720.92V910.597H719.92V911.597ZM719.92 921.294L720.153 922.266L720.92 922.082V921.294H719.92ZM711.656 923.277L711.422 922.305L710.656 922.489V923.277H711.656ZM711.656 971.32H710.656V972.108L711.422 972.292L711.656 971.32ZM719.92 973.303H720.92V972.515L720.153 972.331L719.92 973.303ZM719.92 983V984H720.92V983H719.92ZM688.957 983H687.957V984H688.957V983ZM688.957 973.303L688.723 972.331L687.957 972.515V973.303H688.957ZM697.221 971.32L697.454 972.292L698.221 972.108V971.32H697.221ZM698.323 927.795L699.319 927.878L697.423 927.359L698.323 927.795ZM689.067 945.646L689.904 946.192L689.909 946.185L689.067 945.646ZM677.497 963.386V964.386H678.039L678.335 963.933L677.497 963.386ZM665.376 963.386L664.531 963.921L664.826 964.386H665.376V963.386ZM654.357 945.976L655.202 945.441L655.199 945.437L654.357 945.976ZM644.991 927.795L645.899 927.376L643.994 927.877L644.991 927.795ZM646.093 971.32H645.093V972.108L645.859 972.292L646.093 971.32ZM654.357 973.303H655.357V972.515L654.59 972.331L654.357 973.303ZM654.357 983V984H655.357V983H654.357ZM623.504 983H622.504V984H623.504V983ZM623.504 973.303L623.271 972.331L622.504 972.515V973.303H623.504ZM631.768 971.32L632.002 972.292L632.768 972.108V971.32H631.768ZM631.768 923.277H632.768V922.489L632.002 922.305L631.768 923.277ZM623.504 921.294H622.504V922.082L623.271 922.266L623.504 921.294ZM623.504 911.597V910.597H622.504V911.597H623.504ZM648.737 911.597L649.584 911.065L649.29 910.597H648.737V911.597ZM673.059 949.476L696.089 912.122L694.386 911.072L671.357 948.427L673.059 949.476ZM695.237 912.597H719.92V910.597H695.237V912.597ZM718.92 911.597V921.294H720.92V911.597H718.92ZM719.687 920.321L711.422 922.305L711.889 924.25L720.153 922.266L719.687 920.321ZM710.656 923.277V971.32H712.656V923.277H710.656ZM711.422 972.292L719.687 974.276L720.153 972.331L711.889 970.348L711.422 972.292ZM718.92 973.303V983H720.92V973.303H718.92ZM719.92 982H688.957V984H719.92V982ZM689.957 983V973.303H687.957V983H689.957ZM689.19 974.276L697.454 972.292L696.988 970.348L688.723 972.331L689.19 974.276ZM698.221 971.32V947.849H696.221V971.32H698.221ZM698.221 947.849C698.221 944.695 698.659 935.802 699.319 927.878L697.326 927.712C696.664 935.656 696.221 944.613 696.221 947.849H698.221ZM697.423 927.359C693.998 934.43 689.949 942.413 688.225 945.107L689.909 946.185C691.711 943.369 695.816 935.265 699.223 928.231L697.423 927.359ZM688.229 945.099L676.659 962.84L678.335 963.933L689.904 946.192L688.229 945.099ZM677.497 962.386H665.376V964.386H677.497V962.386ZM666.221 962.851L655.202 945.441L653.512 946.511L664.531 963.921L666.221 962.851ZM655.199 945.437C653.475 942.743 649.201 934.531 645.899 927.376L644.083 928.214C647.392 935.384 651.713 943.7 653.515 946.515L655.199 945.437ZM643.994 927.877C644.655 935.91 645.093 945.025 645.093 948.18H647.093C647.093 944.944 646.65 935.767 645.988 927.713L643.994 927.877ZM645.093 948.18V971.32H647.093V948.18H645.093ZM645.859 972.292L654.124 974.276L654.59 972.331L646.326 970.348L645.859 972.292ZM653.357 973.303V983H655.357V973.303H653.357ZM654.357 982H623.504V984H654.357V982ZM624.504 983V973.303H622.504V983H624.504ZM623.737 974.276L632.002 972.292L631.535 970.348L623.271 972.331L623.737 974.276ZM632.768 971.32V923.277H630.768V971.32H632.768ZM632.002 922.305L623.737 920.321L623.271 922.266L631.535 924.25L632.002 922.305ZM624.504 921.294V911.597H622.504V921.294H624.504ZM623.504 912.597H648.737V910.597H623.504V912.597ZM647.891 912.129L671.361 949.483L673.055 948.419L649.584 911.065L647.891 912.129ZM791.78 923.938L792.761 923.742L792.6 922.938H791.78V923.938ZM762.249 923.938V922.938H761.249V923.938H762.249ZM762.249 940.577H761.249V941.577H762.249V940.577ZM788.585 940.577H789.585V939.577H788.585V940.577ZM788.585 952.918V953.918H789.585V952.918H788.585ZM762.249 952.918V951.918H761.249V952.918H762.249ZM762.249 970.659H761.249V971.659H762.249V970.659ZM792.882 970.659V971.659H793.702L793.862 970.855L792.882 970.659ZM794.204 964.047V963.047H793.384L793.224 963.851L794.204 964.047ZM804.782 964.047L805.781 963.989L805.726 963.047H804.782V964.047ZM805.884 983V984H806.944L806.883 982.942L805.884 983ZM739.22 983H738.22V984H739.22V983ZM739.22 973.303L738.986 972.331L738.22 972.515V973.303H739.22ZM747.484 971.32L747.717 972.292L748.484 972.108V971.32H747.484ZM747.484 923.277H748.484V922.489L747.717 922.305L747.484 923.277ZM739.22 921.294H738.22V922.082L738.986 922.266L739.22 921.294ZM739.22 911.597V910.597H738.22V911.597H739.22ZM804.782 911.597L805.781 911.655L805.842 910.597H804.782V911.597ZM803.68 930.55V931.55H804.624L804.679 930.608L803.68 930.55ZM793.102 930.55L792.122 930.746L792.282 931.55H793.102V930.55ZM791.78 922.938H762.249V924.938H791.78V922.938ZM761.249 923.938V940.577H763.249V923.938H761.249ZM762.249 941.577H788.585V939.577H762.249V941.577ZM787.585 940.577V952.918H789.585V940.577H787.585ZM788.585 951.918H762.249V953.918H788.585V951.918ZM761.249 952.918V970.659H763.249V952.918H761.249ZM762.249 971.659H792.882V969.659H762.249V971.659ZM793.862 970.855L795.185 964.243L793.224 963.851L791.901 970.463L793.862 970.855ZM794.204 965.047H804.782V963.047H794.204V965.047ZM803.784 964.105L804.886 983.058L806.883 982.942L805.781 963.989L803.784 964.105ZM805.884 982H739.22V984H805.884V982ZM740.22 983V973.303H738.22V983H740.22ZM739.453 974.276L747.717 972.292L747.25 970.348L738.986 972.331L739.453 974.276ZM748.484 971.32V923.277H746.484V971.32H748.484ZM747.717 922.305L739.453 920.321L738.986 922.266L747.25 924.25L747.717 922.305ZM740.22 921.294V911.597H738.22V921.294H740.22ZM739.22 912.597H804.782V910.597H739.22V912.597ZM803.784 911.539L802.682 930.492L804.679 930.608L805.781 911.655L803.784 911.539ZM803.68 929.55H793.102V931.55H803.68V929.55ZM794.083 930.354L792.761 923.742L790.799 924.134L792.122 930.746L794.083 930.354ZM889.581 923.277H890.581V922.489L889.814 922.305L889.581 923.277ZM881.317 921.294H880.317V922.082L881.083 922.266L881.317 921.294ZM881.317 911.597V910.597H880.317V911.597H881.317ZM912.17 911.597H913.17V910.597H912.17V911.597ZM912.17 921.294L912.403 922.266L913.17 922.082V921.294H912.17ZM903.906 923.277L903.672 922.305L902.906 922.489V923.277H903.906ZM903.906 983V984H904.906V983H903.906ZM887.928 983L887.123 983.593L887.423 984H887.928V983ZM856.524 940.357L857.329 939.764L857.328 939.762L856.524 940.357ZM846.938 924.599L847.813 924.115L845.945 924.723L846.938 924.599ZM848.591 971.32H847.591V972.108L848.357 972.292L848.591 971.32ZM856.855 973.303H857.855V972.515L857.088 972.331L856.855 973.303ZM856.855 983V984H857.855V983H856.855ZM826.002 983H825.002V984H826.002V983ZM826.002 973.303L825.768 972.331L825.002 972.515V973.303H826.002ZM834.266 971.32L834.499 972.292L835.266 972.108V971.32H834.266ZM834.266 923.277H835.266V922.489L834.499 922.305L834.266 923.277ZM826.002 921.294H825.002V922.082L825.768 922.266L826.002 921.294ZM826.002 911.597V910.597H825.002V911.597H826.002ZM852.668 911.597L853.476 911.008L853.176 910.597H852.668V911.597ZM881.647 951.376L880.839 951.964L880.844 951.97L881.647 951.376ZM890.903 967.243L890.015 967.703L891.897 967.134L890.903 967.243ZM889.814 922.305L881.55 920.321L881.083 922.266L889.348 924.25L889.814 922.305ZM882.317 921.294V911.597H880.317V921.294H882.317ZM881.317 912.597H912.17V910.597H881.317V912.597ZM911.17 911.597V921.294H913.17V911.597H911.17ZM911.937 920.321L903.672 922.305L904.139 924.25L912.403 922.266L911.937 920.321ZM902.906 923.277V983H904.906V923.277H902.906ZM903.906 982H887.928V984H903.906V982ZM888.733 982.407L857.329 939.764L855.719 940.95L887.123 983.593L888.733 982.407ZM857.328 939.762C855.497 937.284 851.226 930.281 847.813 924.115L846.063 925.084C849.481 931.259 853.805 938.36 855.72 940.951L857.328 939.762ZM845.945 924.723C846.828 931.781 847.591 939.987 847.591 943.001H849.591C849.591 939.845 848.811 931.522 847.93 924.475L845.945 924.723ZM847.591 943.001V971.32H849.591V943.001H847.591ZM848.357 972.292L856.621 974.276L857.088 972.331L848.824 970.348L848.357 972.292ZM855.855 973.303V983H857.855V973.303H855.855ZM856.855 982H826.002V984H856.855V982ZM827.002 983V973.303H825.002V983H827.002ZM826.235 974.276L834.499 972.292L834.032 970.348L825.768 972.331L826.235 974.276ZM835.266 971.32V923.277H833.266V971.32H835.266ZM834.499 922.305L826.235 920.321L825.768 922.266L834.032 924.25L834.499 922.305ZM827.002 921.294V911.597H825.002V921.294H827.002ZM826.002 912.597H852.668V910.597H826.002V912.597ZM851.859 912.186L880.839 951.964L882.456 950.787L853.476 911.008L851.859 912.186ZM880.844 951.97C882.831 954.656 886.822 961.536 890.015 967.703L891.791 966.783C888.594 960.608 884.541 953.605 882.451 950.781L880.844 951.97ZM891.897 967.134C891.127 960.093 890.581 951.982 890.581 948.951H888.581C888.581 952.091 889.137 960.288 889.909 967.352L891.897 967.134ZM890.581 948.951V923.277H888.581V948.951H890.581ZM988.488 923.938L989.476 923.782L989.343 922.938H988.488V923.938ZM971.96 923.938V922.938H970.96V923.938H971.96ZM971.96 971.32H970.96V972.12L971.74 972.296L971.96 971.32ZM980.775 973.303H981.775V972.503L980.995 972.328L980.775 973.303ZM980.775 983V984H981.775V983H980.775ZM948.379 983H947.379V984H948.379V983ZM948.379 973.303L948.16 972.328L947.379 972.503V973.303H948.379ZM957.195 971.32L957.414 972.296L958.195 972.12V971.32H957.195ZM957.195 923.938H958.195V922.938H957.195V923.938ZM940.666 923.938V922.938H939.812L939.678 923.782L940.666 923.938ZM939.344 932.313V933.313H940.198L940.332 932.469L939.344 932.313ZM928.766 932.313L927.767 932.366L927.817 933.313H928.766V932.313ZM927.664 911.597V910.597H926.609L926.665 911.65L927.664 911.597ZM1001.49 911.597L1002.49 911.65L1002.55 910.597H1001.49V911.597ZM1000.39 932.313V933.313H1001.34L1001.39 932.366L1000.39 932.313ZM989.811 932.313L988.823 932.469L988.956 933.313H989.811V932.313ZM988.488 922.938H971.96V924.938H988.488V922.938ZM970.96 923.938V971.32H972.96V923.938H970.96ZM971.74 972.296L980.556 974.279L980.995 972.328L972.179 970.344L971.74 972.296ZM979.775 973.303V983H981.775V973.303H979.775ZM980.775 982H948.379V984H980.775V982ZM949.379 983V973.303H947.379V983H949.379ZM948.599 974.279L957.414 972.296L956.975 970.344L948.16 972.328L948.599 974.279ZM958.195 971.32V923.938H956.195V971.32H958.195ZM957.195 922.938H940.666V924.938H957.195V922.938ZM939.678 923.782L938.356 932.157L940.332 932.469L941.654 924.094L939.678 923.782ZM939.344 931.313H928.766V933.313H939.344V931.313ZM929.764 932.26L928.662 911.544L926.665 911.65L927.767 932.366L929.764 932.26ZM927.664 912.597H1001.49V910.597H927.664V912.597ZM1000.49 911.544L999.39 932.26L1001.39 932.366L1002.49 911.65L1000.49 911.544ZM1000.39 931.313H989.811V933.313H1000.39V931.313ZM990.798 932.157L989.476 923.782L987.501 924.094L988.823 932.469L990.798 932.157ZM1070.44 971.761L1070.63 972.742L1071.87 972.498L1071.35 971.35L1070.44 971.761ZM1066.91 963.937L1067.82 963.526L1067.56 962.937H1066.91V963.937ZM1033.75 963.937V962.937H1033.08L1032.82 963.548L1033.75 963.937ZM1030.44 971.761L1029.52 971.371L1029.04 972.504L1030.25 972.742L1030.44 971.761ZM1038.26 973.303H1039.26V972.481L1038.46 972.322L1038.26 973.303ZM1038.26 983V984H1039.26V983H1038.26ZM1008.07 983H1007.07V984H1008.07V983ZM1008.07 973.303L1007.82 972.335L1007.07 972.528V973.303H1008.07ZM1015.78 971.32L1016.03 972.288L1016.49 972.172L1016.69 971.748L1015.78 971.32ZM1044.21 911.377V910.377H1043.58L1043.31 910.948L1044.21 911.377ZM1056.66 911.377L1057.56 910.94L1057.29 910.377H1056.66V911.377ZM1085.75 971.32L1084.86 971.756L1085.06 972.173L1085.51 972.288L1085.75 971.32ZM1093.47 973.303H1094.47V972.528L1093.72 972.335L1093.47 973.303ZM1093.47 983V984H1094.47V983H1093.47ZM1062.62 983H1061.62V984H1062.62V983ZM1062.62 973.303L1062.42 972.322L1061.62 972.481V973.303H1062.62ZM1045.87 935.949L1046.78 936.361L1046.78 936.352L1046.79 936.343L1045.87 935.949ZM1038.48 952.257L1037.57 951.845L1036.93 953.257H1038.48V952.257ZM1061.95 952.257V953.257H1063.54L1062.86 951.827L1061.95 952.257ZM1054.13 935.839L1053.22 936.26L1053.23 936.269L1054.13 935.839ZM1050.16 924.71L1051.13 924.467L1050.27 921.002L1049.21 924.413L1050.16 924.71ZM1071.35 971.35L1067.82 963.526L1066 964.348L1069.53 972.172L1071.35 971.35ZM1066.91 962.937H1033.75V964.937H1066.91V962.937ZM1032.82 963.548L1029.52 971.371L1031.36 972.15L1034.67 964.326L1032.82 963.548ZM1030.25 972.742L1038.07 974.284L1038.46 972.322L1030.63 970.78L1030.25 972.742ZM1037.26 973.303V983H1039.26V973.303H1037.26ZM1038.26 982H1008.07V984H1038.26V982ZM1009.07 983V973.303H1007.07V983H1009.07ZM1008.32 974.272L1016.03 972.288L1015.54 970.351L1007.82 972.335L1008.32 974.272ZM1016.69 971.748L1045.12 911.805L1043.31 910.948L1014.88 970.891L1016.69 971.748ZM1044.21 912.377H1056.66V910.377H1044.21V912.377ZM1055.77 911.813L1084.86 971.756L1086.65 970.883L1057.56 910.94L1055.77 911.813ZM1085.51 972.288L1093.22 974.272L1093.72 972.335L1086 970.351L1085.51 972.288ZM1092.47 973.303V983H1094.47V973.303H1092.47ZM1093.47 982H1062.62V984H1093.47V982ZM1063.62 983V973.303H1061.62V983H1063.62ZM1062.81 974.284L1070.63 972.742L1070.25 970.78L1062.42 972.322L1062.81 974.284ZM1044.96 935.537L1037.57 951.845L1039.39 952.669L1046.78 936.361L1044.96 935.537ZM1038.48 953.257H1061.95V951.257H1038.48V953.257ZM1062.86 951.827L1055.03 935.409L1053.23 936.269L1061.05 952.687L1062.86 951.827ZM1055.04 935.418C1053.63 932.387 1051.89 927.488 1051.13 924.467L1049.19 924.952C1049.98 928.102 1051.77 933.12 1053.22 936.26L1055.04 935.418ZM1049.21 924.413C1048.23 927.558 1046.27 932.477 1044.95 935.555L1046.79 936.343C1048.11 933.25 1050.11 928.253 1051.12 925.006L1049.21 924.413ZM1132.59 923.277L1132.36 922.305L1131.59 922.489V923.277H1132.59ZM1132.59 970.659H1131.59V971.659H1132.59V970.659ZM1159.04 970.659V971.659H1159.89L1160.02 970.812L1159.04 970.659ZM1160.47 961.403V960.403H1159.61L1159.48 961.25L1160.47 961.403ZM1170.94 961.403L1171.93 961.352L1171.89 960.403H1170.94V961.403ZM1172.04 983V984H1173.09L1173.04 982.949L1172.04 983ZM1109.56 983H1108.56V984H1109.56V983ZM1109.56 973.303L1109.33 972.331L1108.56 972.515V973.303H1109.56ZM1117.82 971.32L1118.06 972.292L1118.82 972.108V971.32H1117.82ZM1117.82 923.277H1118.82V922.489L1118.06 922.305L1117.82 923.277ZM1109.56 921.294H1108.56V922.082L1109.33 922.266L1109.56 921.294ZM1109.56 911.597V910.597H1108.56V911.597H1109.56ZM1140.85 911.597H1141.85V910.597H1140.85V911.597ZM1140.85 921.294L1141.09 922.266L1141.85 922.082V921.294H1140.85ZM1131.59 923.277V970.659H1133.59V923.277H1131.59ZM1132.59 971.659H1159.04V969.659H1132.59V971.659ZM1160.02 970.812L1161.46 961.556L1159.48 961.25L1158.05 970.506L1160.02 970.812ZM1160.47 962.403H1170.94V960.403H1160.47V962.403ZM1169.94 961.454L1171.04 983.051L1173.04 982.949L1171.93 961.352L1169.94 961.454ZM1172.04 982H1109.56V984H1172.04V982ZM1110.56 983V973.303H1108.56V983H1110.56ZM1109.79 974.276L1118.06 972.292L1117.59 970.348L1109.33 972.331L1109.79 974.276ZM1118.82 971.32V923.277H1116.82V971.32H1118.82ZM1118.06 922.305L1109.79 920.321L1109.33 922.266L1117.59 924.25L1118.06 922.305ZM1110.56 921.294V911.597H1108.56V921.294H1110.56ZM1109.56 912.597H1140.85V910.597H1109.56V912.597ZM1139.85 911.597V921.294H1141.85V911.597H1139.85ZM1140.62 920.321L1132.36 922.305L1132.82 924.25L1141.09 922.266L1140.62 920.321Z" fill="black" mask="url(#path-2-outside-1_20_37)"/>
<mask id="path-4-outside-2_20_37" maskUnits="userSpaceOnUse" x="268" y="1065" width="711" height="78" fill="black">
<rect fill="white" x="268" y="1065" width="711" height="78"/>
<path d="M269.356 1140V1130.3L277.621 1128.32V1080.28L269.356 1078.29V1068.6H307.592C327.096 1068.6 337.784 1076.53 337.784 1091.74C337.784 1107.05 326.214 1115.21 306.931 1115.21H292.386V1128.32L303.956 1130.3V1140H269.356ZM292.386 1102.87H307.813C319.052 1102.87 322.909 1098.13 322.909 1091.52C322.909 1085.24 319.052 1080.94 308.143 1080.94H292.386V1102.87ZM356.561 1140V1130.3L364.825 1128.32V1080.28L356.561 1078.29V1068.6H394.687C411.215 1068.6 424.218 1074.88 424.218 1090.64C424.218 1102.54 415.843 1108.27 407.799 1110.69L418.929 1128.32L428.295 1130.3V1140H410.113L393.034 1113.11H379.591V1128.32L387.855 1130.3V1140H356.561ZM379.591 1100.77H395.458C404.494 1100.77 409.232 1097.14 409.232 1090.52C409.232 1083.69 403.502 1080.94 394.466 1080.94H379.591V1100.77ZM485.917 1129.31C502.225 1129.31 509.938 1117.52 509.938 1104.74C509.938 1092.51 502.446 1079.51 485.917 1079.51C469.499 1079.51 461.896 1092.62 461.896 1104.85C461.896 1117.41 469.609 1129.31 485.917 1129.31ZM485.917 1141.76C462.226 1141.76 446.8 1125.68 446.8 1104.96C446.8 1084.46 462.116 1066.83 485.917 1066.83C509.938 1066.83 525.034 1084.24 525.034 1104.85C525.034 1125.57 509.608 1141.76 485.917 1141.76ZM544.852 1140V1130.3L553.116 1128.32V1080.28L544.852 1078.29V1068.6H578.35C605.897 1068.6 619.561 1079.95 619.561 1104.63C619.561 1128.87 602.151 1140 578.129 1140H544.852ZM567.882 1127.66H578.57C596.201 1127.66 604.465 1119.28 604.465 1104.63C604.465 1087 596.09 1080.94 578.24 1080.94H567.882V1127.66ZM678.94 1141.76C654.698 1141.76 644.892 1126.78 644.892 1104.85V1080.28L637.178 1078.29V1068.6H667.921V1078.29L659.657 1080.28V1102.87C659.657 1117.3 662.852 1129.2 679.271 1129.2C695.689 1129.2 698.664 1117.63 698.664 1103.2V1080.28L690.4 1078.29V1068.6H720.812V1078.29L713.099 1080.28V1105.07C713.099 1127 703.182 1141.76 678.94 1141.76ZM779.64 1141.76C754.737 1141.76 738.759 1127.88 738.759 1105.18C738.759 1083.8 754.627 1066.83 777.877 1066.83C793.413 1066.83 805.755 1074 805.755 1084.24C805.755 1088.65 802.449 1093.72 795.507 1093.72C791.099 1093.72 787.243 1090.3 787.243 1086.01C787.243 1084.13 788.124 1082.37 788.896 1081.27C787.243 1080.06 783.166 1079.07 778.538 1079.07C761.679 1079.07 753.855 1092.4 753.855 1104.74C753.855 1118.62 762.891 1129.31 780.08 1129.31C790.218 1129.31 798.592 1125.68 800.135 1125.01L805.314 1136.03C803.551 1136.91 792.642 1141.76 779.64 1141.76ZM884.769 1080.94H868.241V1128.32L877.056 1130.3V1140H844.66V1130.3L853.475 1128.32V1080.94H836.947L835.625 1089.31H825.046L823.945 1068.6H897.772L896.67 1089.31H886.092L884.769 1080.94ZM933.18 1123.14C933.18 1124.57 932.518 1126.23 931.747 1127.11C934.171 1128.43 939.681 1129.97 944.97 1129.97C952.793 1129.97 963.151 1129.09 963.151 1120.72C963.151 1114.33 952.573 1111.9 943.317 1109.92C931.637 1107.38 916.1 1104.08 916.1 1088.54C916.1 1073.67 931.637 1066.83 946.733 1066.83C962.6 1066.83 976.374 1073.45 976.374 1083.14C976.374 1088.54 972.738 1092.84 967.118 1092.84C961.168 1092.84 958.193 1088.65 958.193 1085.02C958.193 1083.25 958.633 1082.04 959.405 1081.05C957.201 1079.84 953.014 1078.84 946.953 1078.84C937.918 1078.84 930.645 1082.04 930.645 1088.21C930.645 1094.16 940.342 1096.36 949.708 1098.35C961.498 1100.88 977.696 1105.51 977.696 1120.94C977.696 1133.83 966.016 1141.76 945.962 1141.76C931.306 1141.76 915.108 1135.81 915.108 1125.12C915.108 1118.95 919.406 1115.32 924.585 1115.32C930.755 1115.32 933.18 1119.84 933.18 1123.14Z"/>
</mask>
<path d="M269.356 1140V1130.3L277.621 1128.32V1080.28L269.356 1078.29V1068.6H307.592C327.096 1068.6 337.784 1076.53 337.784 1091.74C337.784 1107.05 326.214 1115.21 306.931 1115.21H292.386V1128.32L303.956 1130.3V1140H269.356ZM292.386 1102.87H307.813C319.052 1102.87 322.909 1098.13 322.909 1091.52C322.909 1085.24 319.052 1080.94 308.143 1080.94H292.386V1102.87ZM356.561 1140V1130.3L364.825 1128.32V1080.28L356.561 1078.29V1068.6H394.687C411.215 1068.6 424.218 1074.88 424.218 1090.64C424.218 1102.54 415.843 1108.27 407.799 1110.69L418.929 1128.32L428.295 1130.3V1140H410.113L393.034 1113.11H379.591V1128.32L387.855 1130.3V1140H356.561ZM379.591 1100.77H395.458C404.494 1100.77 409.232 1097.14 409.232 1090.52C409.232 1083.69 403.502 1080.94 394.466 1080.94H379.591V1100.77ZM485.917 1129.31C502.225 1129.31 509.938 1117.52 509.938 1104.74C509.938 1092.51 502.446 1079.51 485.917 1079.51C469.499 1079.51 461.896 1092.62 461.896 1104.85C461.896 1117.41 469.609 1129.31 485.917 1129.31ZM485.917 1141.76C462.226 1141.76 446.8 1125.68 446.8 1104.96C446.8 1084.46 462.116 1066.83 485.917 1066.83C509.938 1066.83 525.034 1084.24 525.034 1104.85C525.034 1125.57 509.608 1141.76 485.917 1141.76ZM544.852 1140V1130.3L553.116 1128.32V1080.28L544.852 1078.29V1068.6H578.35C605.897 1068.6 619.561 1079.95 619.561 1104.63C619.561 1128.87 602.151 1140 578.129 1140H544.852ZM567.882 1127.66H578.57C596.201 1127.66 604.465 1119.28 604.465 1104.63C604.465 1087 596.09 1080.94 578.24 1080.94H567.882V1127.66ZM678.94 1141.76C654.698 1141.76 644.892 1126.78 644.892 1104.85V1080.28L637.178 1078.29V1068.6H667.921V1078.29L659.657 1080.28V1102.87C659.657 1117.3 662.852 1129.2 679.271 1129.2C695.689 1129.2 698.664 1117.63 698.664 1103.2V1080.28L690.4 1078.29V1068.6H720.812V1078.29L713.099 1080.28V1105.07C713.099 1127 703.182 1141.76 678.94 1141.76ZM779.64 1141.76C754.737 1141.76 738.759 1127.88 738.759 1105.18C738.759 1083.8 754.627 1066.83 777.877 1066.83C793.413 1066.83 805.755 1074 805.755 1084.24C805.755 1088.65 802.449 1093.72 795.507 1093.72C791.099 1093.72 787.243 1090.3 787.243 1086.01C787.243 1084.13 788.124 1082.37 788.896 1081.27C787.243 1080.06 783.166 1079.07 778.538 1079.07C761.679 1079.07 753.855 1092.4 753.855 1104.74C753.855 1118.62 762.891 1129.31 780.08 1129.31C790.218 1129.31 798.592 1125.68 800.135 1125.01L805.314 1136.03C803.551 1136.91 792.642 1141.76 779.64 1141.76ZM884.769 1080.94H868.241V1128.32L877.056 1130.3V1140H844.66V1130.3L853.475 1128.32V1080.94H836.947L835.625 1089.31H825.046L823.945 1068.6H897.772L896.67 1089.31H886.092L884.769 1080.94ZM933.18 1123.14C933.18 1124.57 932.518 1126.23 931.747 1127.11C934.171 1128.43 939.681 1129.97 944.97 1129.97C952.793 1129.97 963.151 1129.09 963.151 1120.72C963.151 1114.33 952.573 1111.9 943.317 1109.92C931.637 1107.38 916.1 1104.08 916.1 1088.54C916.1 1073.67 931.637 1066.83 946.733 1066.83C962.6 1066.83 976.374 1073.45 976.374 1083.14C976.374 1088.54 972.738 1092.84 967.118 1092.84C961.168 1092.84 958.193 1088.65 958.193 1085.02C958.193 1083.25 958.633 1082.04 959.405 1081.05C957.201 1079.84 953.014 1078.84 946.953 1078.84C937.918 1078.84 930.645 1082.04 930.645 1088.21C930.645 1094.16 940.342 1096.36 949.708 1098.35C961.498 1100.88 977.696 1105.51 977.696 1120.94C977.696 1133.83 966.016 1141.76 945.962 1141.76C931.306 1141.76 915.108 1135.81 915.108 1125.12C915.108 1118.95 919.406 1115.32 924.585 1115.32C930.755 1115.32 933.18 1119.84 933.18 1123.14Z" fill="#FEFCF4"/>
<path d="M269.356 1140H268.356V1141H269.356V1140ZM269.356 1130.3L269.123 1129.33L268.356 1129.51V1130.3H269.356ZM277.621 1128.32L277.854 1129.29L278.621 1129.11V1128.32H277.621ZM277.621 1080.28H278.621V1079.49L277.854 1079.3L277.621 1080.28ZM269.356 1078.29H268.356V1079.08L269.123 1079.27L269.356 1078.29ZM269.356 1068.6V1067.6H268.356V1068.6H269.356ZM292.386 1115.21V1114.21H291.386V1115.21H292.386ZM292.386 1128.32H291.386V1129.16L292.217 1129.31L292.386 1128.32ZM303.956 1130.3H304.956V1129.46L304.125 1129.32L303.956 1130.3ZM303.956 1140V1141H304.956V1140H303.956ZM292.386 1102.87H291.386V1103.87H292.386V1102.87ZM292.386 1080.94V1079.94H291.386V1080.94H292.386ZM270.356 1140V1130.3H268.356V1140H270.356ZM269.59 1131.28L277.854 1129.29L277.387 1127.35L269.123 1129.33L269.59 1131.28ZM278.621 1128.32V1080.28H276.621V1128.32H278.621ZM277.854 1079.3L269.59 1077.32L269.123 1079.27L277.387 1081.25L277.854 1079.3ZM270.356 1078.29V1068.6H268.356V1078.29H270.356ZM269.356 1069.6H307.592V1067.6H269.356V1069.6ZM307.592 1069.6C317.232 1069.6 324.53 1071.56 329.397 1075.26C334.218 1078.93 336.784 1084.39 336.784 1091.74H338.784C338.784 1083.87 336.006 1077.77 330.607 1073.67C325.254 1069.6 317.456 1067.6 307.592 1067.6V1069.6ZM336.784 1091.74C336.784 1099.11 334.015 1104.67 328.991 1108.41C323.924 1112.19 316.452 1114.21 306.931 1114.21V1116.21C316.693 1116.21 324.648 1114.15 330.187 1110.02C335.768 1105.86 338.784 1099.68 338.784 1091.74H336.784ZM306.931 1114.21H292.386V1116.21H306.931V1114.21ZM291.386 1115.21V1128.32H293.386V1115.21H291.386ZM292.217 1129.31L303.787 1131.29L304.125 1129.32L292.555 1127.33L292.217 1129.31ZM302.956 1130.3V1140H304.956V1130.3H302.956ZM303.956 1139H269.356V1141H303.956V1139ZM292.386 1103.87H307.813V1101.87H292.386V1103.87ZM307.813 1103.87C313.548 1103.87 317.598 1102.66 320.223 1100.43C322.879 1098.18 323.909 1095.02 323.909 1091.52H321.909C321.909 1094.62 321.01 1097.14 318.928 1098.91C316.815 1100.7 313.316 1101.87 307.813 1101.87V1103.87ZM323.909 1091.52C323.909 1088.16 322.867 1085.19 320.241 1083.09C317.659 1081.03 313.701 1079.94 308.143 1079.94V1081.94C313.494 1081.94 316.919 1083 318.993 1084.65C321.022 1086.27 321.909 1088.59 321.909 1091.52H323.909ZM308.143 1079.94H292.386V1081.94H308.143V1079.94ZM291.386 1080.94V1102.87H293.386V1080.94H291.386ZM356.561 1140H355.561V1141H356.561V1140ZM356.561 1130.3L356.328 1129.33L355.561 1129.51V1130.3H356.561ZM364.825 1128.32L365.059 1129.29L365.825 1129.11V1128.32H364.825ZM364.825 1080.28H365.825V1079.49L365.059 1079.3L364.825 1080.28ZM356.561 1078.29H355.561V1079.08L356.328 1079.27L356.561 1078.29ZM356.561 1068.6V1067.6H355.561V1068.6H356.561ZM407.799 1110.69L407.511 1109.73L406.252 1110.11L406.954 1111.22L407.799 1110.69ZM418.929 1128.32L418.083 1128.85L418.308 1129.21L418.721 1129.3L418.929 1128.32ZM428.295 1130.3H429.295V1129.49L428.502 1129.33L428.295 1130.3ZM428.295 1140V1141H429.295V1140H428.295ZM410.113 1140L409.269 1140.54L409.564 1141H410.113V1140ZM393.034 1113.11L393.878 1112.58L393.583 1112.11H393.034V1113.11ZM379.591 1113.11V1112.11H378.591V1113.11H379.591ZM379.591 1128.32H378.591V1129.11L379.358 1129.29L379.591 1128.32ZM387.855 1130.3H388.855V1129.51L388.088 1129.33L387.855 1130.3ZM387.855 1140V1141H388.855V1140H387.855ZM379.591 1100.77H378.591V1101.77H379.591V1100.77ZM379.591 1080.94V1079.94H378.591V1080.94H379.591ZM357.561 1140V1130.3H355.561V1140H357.561ZM356.795 1131.28L365.059 1129.29L364.592 1127.35L356.328 1129.33L356.795 1131.28ZM365.825 1128.32V1080.28H363.825V1128.32H365.825ZM365.059 1079.3L356.795 1077.32L356.328 1079.27L364.592 1081.25L365.059 1079.3ZM357.561 1078.29V1068.6H355.561V1078.29H357.561ZM356.561 1069.6H394.687V1067.6H356.561V1069.6ZM394.687 1069.6C402.849 1069.6 410.008 1071.15 415.096 1074.54C420.126 1077.89 423.218 1083.08 423.218 1090.64H425.218C425.218 1082.43 421.808 1076.61 416.205 1072.87C410.659 1069.18 403.053 1067.6 394.687 1067.6V1069.6ZM423.218 1090.64C423.218 1096.32 421.226 1100.48 418.304 1103.52C415.361 1106.58 411.428 1108.55 407.511 1109.73L408.088 1111.65C412.214 1110.4 416.491 1108.29 419.746 1104.91C423.022 1101.5 425.218 1096.85 425.218 1090.64H423.218ZM406.954 1111.22L418.083 1128.85L419.774 1127.79L408.645 1110.16L406.954 1111.22ZM418.721 1129.3L428.088 1131.28L428.502 1129.33L419.136 1127.34L418.721 1129.3ZM427.295 1130.3V1140H429.295V1130.3H427.295ZM428.295 1139H410.113V1141H428.295V1139ZM410.958 1139.46L393.878 1112.58L392.19 1113.65L409.269 1140.54L410.958 1139.46ZM393.034 1112.11H379.591V1114.11H393.034V1112.11ZM378.591 1113.11V1128.32H380.591V1113.11H378.591ZM379.358 1129.29L387.622 1131.28L388.088 1129.33L379.824 1127.35L379.358 1129.29ZM386.855 1130.3V1140H388.855V1130.3H386.855ZM387.855 1139H356.561V1141H387.855V1139ZM379.591 1101.77H395.458V1099.77H379.591V1101.77ZM395.458 1101.77C400.087 1101.77 403.777 1100.84 406.333 1098.93C408.936 1096.98 410.232 1094.1 410.232 1090.52H408.232C408.232 1093.56 407.159 1095.81 405.133 1097.33C403.061 1098.88 399.865 1099.77 395.458 1099.77V1101.77ZM410.232 1090.52C410.232 1086.77 408.624 1084.04 405.753 1082.31C402.962 1080.63 399.054 1079.94 394.466 1079.94V1081.94C398.915 1081.94 402.39 1082.62 404.722 1084.03C406.975 1085.38 408.232 1087.45 408.232 1090.52H410.232ZM394.466 1079.94H379.591V1081.94H394.466V1079.94ZM378.591 1080.94V1100.77H380.591V1080.94H378.591ZM485.917 1130.31C494.333 1130.31 500.623 1127.26 504.797 1122.48C508.953 1117.71 510.938 1111.32 510.938 1104.74H508.938C508.938 1110.94 507.067 1116.83 503.29 1121.16C499.53 1125.47 493.81 1128.31 485.917 1128.31V1130.31ZM510.938 1104.74C510.938 1098.43 509.009 1091.89 504.898 1086.9C500.764 1081.88 494.473 1078.51 485.917 1078.51V1080.51C493.89 1080.51 499.609 1083.63 503.354 1088.17C507.121 1092.74 508.938 1098.81 508.938 1104.74H510.938ZM485.917 1078.51C477.412 1078.51 471.122 1081.92 466.977 1086.96C462.854 1091.97 460.896 1098.54 460.896 1104.85H462.896C462.896 1098.93 464.739 1092.83 468.522 1088.23C472.283 1083.65 478.004 1080.51 485.917 1080.51V1078.51ZM460.896 1104.85C460.896 1111.33 462.883 1117.69 467.037 1122.45C471.21 1127.23 477.499 1130.31 485.917 1130.31V1128.31C478.027 1128.31 472.306 1125.44 468.544 1121.13C464.765 1116.8 462.896 1110.94 462.896 1104.85H460.896ZM485.917 1140.76C462.749 1140.76 447.8 1125.09 447.8 1104.96H445.8C445.8 1126.26 461.703 1142.76 485.917 1142.76V1140.76ZM447.8 1104.96C447.8 1084.99 462.691 1067.83 485.917 1067.83V1065.83C461.541 1065.83 445.8 1083.93 445.8 1104.96H447.8ZM485.917 1067.83C509.365 1067.83 524.034 1084.78 524.034 1104.85H526.034C526.034 1083.71 510.511 1065.83 485.917 1065.83V1067.83ZM524.034 1104.85C524.034 1124.99 509.081 1140.76 485.917 1140.76V1142.76C510.135 1142.76 526.034 1126.14 526.034 1104.85H524.034ZM544.852 1140H543.852V1141H544.852V1140ZM544.852 1130.3L544.619 1129.33L543.852 1129.51V1130.3H544.852ZM553.116 1128.32L553.35 1129.29L554.116 1129.11V1128.32H553.116ZM553.116 1080.28H554.116V1079.49L553.35 1079.3L553.116 1080.28ZM544.852 1078.29H543.852V1079.08L544.619 1079.27L544.852 1078.29ZM544.852 1068.6V1067.6H543.852V1068.6H544.852ZM567.882 1127.66H566.882V1128.66H567.882V1127.66ZM567.882 1080.94V1079.94H566.882V1080.94H567.882ZM545.852 1140V1130.3H543.852V1140H545.852ZM545.086 1131.28L553.35 1129.29L552.883 1127.35L544.619 1129.33L545.086 1131.28ZM554.116 1128.32V1080.28H552.116V1128.32H554.116ZM553.35 1079.3L545.086 1077.32L544.619 1079.27L552.883 1081.25L553.35 1079.3ZM545.852 1078.29V1068.6H543.852V1078.29H545.852ZM544.852 1069.6H578.35V1067.6H544.852V1069.6ZM578.35 1069.6C592.013 1069.6 602.033 1072.42 608.632 1078.11C615.201 1083.79 618.561 1092.47 618.561 1104.63H620.561C620.561 1092.1 617.089 1082.77 609.939 1076.6C602.82 1070.45 592.234 1067.6 578.35 1067.6V1069.6ZM618.561 1104.63C618.561 1116.49 614.317 1125.02 607.233 1130.62C600.113 1136.25 590.003 1139 578.129 1139V1141C590.277 1141 600.883 1138.19 608.473 1132.19C616.099 1126.16 620.561 1117.01 620.561 1104.63H618.561ZM578.129 1139H544.852V1141H578.129V1139ZM567.882 1128.66H578.57V1126.66H567.882V1128.66ZM578.57 1128.66C587.528 1128.66 594.285 1126.53 598.806 1122.38C603.342 1118.21 605.465 1112.14 605.465 1104.63H603.465C603.465 1111.77 601.456 1117.22 597.452 1120.9C593.434 1124.6 587.243 1126.66 578.57 1126.66V1128.66ZM605.465 1104.63C605.465 1095.68 603.338 1089.4 598.698 1085.41C594.095 1081.46 587.235 1079.94 578.24 1079.94V1081.94C587.095 1081.94 593.347 1083.45 597.394 1086.93C601.404 1090.38 603.465 1095.95 603.465 1104.63H605.465ZM578.24 1079.94H567.882V1081.94H578.24V1079.94ZM566.882 1080.94V1127.66H568.882V1080.94H566.882ZM644.892 1080.28H645.892V1079.5L645.141 1079.31L644.892 1080.28ZM637.178 1078.29H636.178V1079.07L636.929 1079.26L637.178 1078.29ZM637.178 1068.6V1067.6H636.178V1068.6H637.178ZM667.921 1068.6H668.921V1067.6H667.921V1068.6ZM667.921 1078.29L668.155 1079.27L668.921 1079.08V1078.29H667.921ZM659.657 1080.28L659.424 1079.3L658.657 1079.49V1080.28H659.657ZM698.664 1080.28H699.664V1079.49L698.897 1079.3L698.664 1080.28ZM690.4 1078.29H689.4V1079.08L690.166 1079.27L690.4 1078.29ZM690.4 1068.6V1067.6H689.4V1068.6H690.4ZM720.812 1068.6H721.812V1067.6H720.812V1068.6ZM720.812 1078.29L721.061 1079.26L721.812 1079.07V1078.29H720.812ZM713.099 1080.28L712.85 1079.31L712.099 1079.5V1080.28H713.099ZM678.94 1140.76C667.035 1140.76 658.835 1137.09 653.589 1130.88C648.317 1124.64 645.892 1115.68 645.892 1104.85H643.892C643.892 1115.94 646.369 1125.44 652.061 1132.17C657.779 1138.94 666.604 1142.76 678.94 1142.76V1140.76ZM645.892 1104.85V1080.28H643.892V1104.85H645.892ZM645.141 1079.31L637.427 1077.33L636.929 1079.26L644.642 1081.25L645.141 1079.31ZM638.178 1078.29V1068.6H636.178V1078.29H638.178ZM637.178 1069.6H667.921V1067.6H637.178V1069.6ZM666.921 1068.6V1078.29H668.921V1068.6H666.921ZM667.688 1077.32L659.424 1079.3L659.89 1081.25L668.155 1079.27L667.688 1077.32ZM658.657 1080.28V1102.87H660.657V1080.28H658.657ZM658.657 1102.87C658.657 1110.11 659.449 1116.93 662.448 1121.96C665.511 1127.09 670.775 1130.2 679.271 1130.2V1128.2C671.348 1128.2 666.805 1125.36 664.166 1120.93C661.462 1116.4 660.657 1110.05 660.657 1102.87H658.657ZM679.271 1130.2C687.755 1130.2 692.971 1127.18 695.984 1122.12C698.929 1117.18 699.664 1110.43 699.664 1103.2H697.664C697.664 1110.39 696.912 1116.65 694.265 1121.1C691.685 1125.43 687.204 1128.2 679.271 1128.2V1130.2ZM699.664 1103.2V1080.28H697.664V1103.2H699.664ZM698.897 1079.3L690.633 1077.32L690.166 1079.27L698.431 1081.25L698.897 1079.3ZM691.4 1078.29V1068.6H689.4V1078.29H691.4ZM690.4 1069.6H720.812V1067.6H690.4V1069.6ZM719.812 1068.6V1078.29H721.812V1068.6H719.812ZM720.563 1077.33L712.85 1079.31L713.348 1081.25L721.061 1079.26L720.563 1077.33ZM712.099 1080.28V1105.07H714.099V1080.28H712.099ZM712.099 1105.07C712.099 1115.9 709.647 1124.81 704.351 1130.99C699.078 1137.14 690.85 1140.76 678.94 1140.76V1142.76C691.272 1142.76 700.123 1139 705.87 1132.29C711.592 1125.61 714.099 1116.16 714.099 1105.07H712.099ZM788.896 1081.27L789.715 1081.84L790.276 1081.04L789.487 1080.46L788.896 1081.27ZM800.135 1125.01L801.04 1124.59L800.629 1123.71L799.741 1124.1L800.135 1125.01ZM805.314 1136.03L805.761 1136.93L806.634 1136.49L806.219 1135.61L805.314 1136.03ZM779.64 1140.76C767.368 1140.76 757.406 1137.34 750.525 1131.24C743.658 1125.14 739.759 1116.28 739.759 1105.18H737.759C737.759 1116.78 741.85 1126.21 749.197 1132.73C756.531 1139.24 767.009 1142.76 779.64 1142.76V1140.76ZM739.759 1105.18C739.759 1084.35 755.185 1067.83 777.877 1067.83V1065.83C754.069 1065.83 737.759 1083.26 737.759 1105.18H739.759ZM777.877 1067.83C785.505 1067.83 792.284 1069.59 797.121 1072.55C801.954 1075.5 804.755 1079.57 804.755 1084.24H806.755C806.755 1078.67 803.385 1074.03 798.163 1070.84C792.945 1067.65 785.785 1065.83 777.877 1065.83V1067.83ZM804.755 1084.24C804.755 1088.17 801.831 1092.72 795.507 1092.72V1094.72C803.067 1094.72 806.755 1089.14 806.755 1084.24H804.755ZM795.507 1092.72C791.57 1092.72 788.243 1089.67 788.243 1086.01H786.243C786.243 1090.94 790.629 1094.72 795.507 1094.72V1092.72ZM788.243 1086.01C788.243 1084.42 789.002 1082.86 789.715 1081.84L788.076 1080.7C787.246 1081.88 786.243 1083.85 786.243 1086.01H788.243ZM789.487 1080.46C788.493 1079.73 786.899 1079.15 785.049 1078.74C783.169 1078.32 780.92 1078.07 778.538 1078.07V1080.07C780.784 1080.07 782.888 1080.31 784.616 1080.69C786.375 1081.08 787.646 1081.59 788.304 1082.08L789.487 1080.46ZM778.538 1078.07C769.816 1078.07 763.362 1081.53 759.106 1086.63C754.871 1091.72 752.855 1098.37 752.855 1104.74H754.855C754.855 1098.77 756.751 1092.58 760.643 1087.91C764.513 1083.27 770.401 1080.07 778.538 1080.07V1078.07ZM752.855 1104.74C752.855 1111.9 755.189 1118.31 759.815 1122.94C764.444 1127.57 771.274 1130.31 780.08 1130.31V1128.31C771.698 1128.31 765.414 1125.71 761.229 1121.52C757.04 1117.34 754.855 1111.46 754.855 1104.74H752.855ZM780.08 1130.31C790.432 1130.31 798.964 1126.6 800.529 1125.93L799.741 1124.1C798.221 1124.75 790.004 1128.31 780.08 1128.31V1130.31ZM799.23 1125.44L804.409 1136.46L806.219 1135.61L801.04 1124.59L799.23 1125.44ZM804.867 1135.14C803.175 1135.98 792.426 1140.76 779.64 1140.76V1142.76C792.858 1142.76 803.926 1137.84 805.761 1136.93L804.867 1135.14ZM884.769 1080.94L885.757 1080.78L885.624 1079.94H884.769V1080.94ZM868.241 1080.94V1079.94H867.241V1080.94H868.241ZM868.241 1128.32H867.241V1129.12L868.021 1129.3L868.241 1128.32ZM877.056 1130.3H878.056V1129.5L877.276 1129.33L877.056 1130.3ZM877.056 1140V1141H878.056V1140H877.056ZM844.66 1140H843.66V1141H844.66V1140ZM844.66 1130.3L844.441 1129.33L843.66 1129.5V1130.3H844.66ZM853.475 1128.32L853.695 1129.3L854.475 1129.12V1128.32H853.475ZM853.475 1080.94H854.475V1079.94H853.475V1080.94ZM836.947 1080.94V1079.94H836.092L835.959 1080.78L836.947 1080.94ZM835.625 1089.31V1090.31H836.479L836.612 1089.47L835.625 1089.31ZM825.046 1089.31L824.048 1089.37L824.098 1090.31H825.046V1089.31ZM823.945 1068.6V1067.6H822.89L822.946 1068.65L823.945 1068.6ZM897.772 1068.6L898.77 1068.65L898.826 1067.6H897.772V1068.6ZM896.67 1089.31V1090.31H897.618L897.668 1089.37L896.67 1089.31ZM886.092 1089.31L885.104 1089.47L885.237 1090.31H886.092V1089.31ZM884.769 1079.94H868.241V1081.94H884.769V1079.94ZM867.241 1080.94V1128.32H869.241V1080.94H867.241ZM868.021 1129.3L876.837 1131.28L877.276 1129.33L868.46 1127.34L868.021 1129.3ZM876.056 1130.3V1140H878.056V1130.3H876.056ZM877.056 1139H844.66V1141H877.056V1139ZM845.66 1140V1130.3H843.66V1140H845.66ZM844.88 1131.28L853.695 1129.3L853.256 1127.34L844.441 1129.33L844.88 1131.28ZM854.475 1128.32V1080.94H852.475V1128.32H854.475ZM853.475 1079.94H836.947V1081.94H853.475V1079.94ZM835.959 1080.78L834.637 1089.16L836.612 1089.47L837.935 1081.09L835.959 1080.78ZM835.625 1088.31H825.046V1090.31H835.625V1088.31ZM826.045 1089.26L824.943 1068.54L822.946 1068.65L824.048 1089.37L826.045 1089.26ZM823.945 1069.6H897.772V1067.6H823.945V1069.6ZM896.773 1068.54L895.671 1089.26L897.668 1089.37L898.77 1068.65L896.773 1068.54ZM896.67 1088.31H886.092V1090.31H896.67V1088.31ZM887.079 1089.16L885.757 1080.78L883.782 1081.09L885.104 1089.47L887.079 1089.16ZM931.747 1127.11L930.995 1126.45L930.173 1127.39L931.268 1127.99L931.747 1127.11ZM943.317 1109.92L943.105 1110.9L943.108 1110.9L943.317 1109.92ZM959.405 1081.05L960.194 1081.66L960.914 1080.74L959.887 1080.17L959.405 1081.05ZM949.708 1098.35L949.918 1097.37L949.915 1097.37L949.708 1098.35ZM932.18 1123.14C932.18 1124.34 931.604 1125.75 930.995 1126.45L932.5 1127.77C933.433 1126.7 934.18 1124.81 934.18 1123.14H932.18ZM931.268 1127.99C933.861 1129.4 939.54 1130.97 944.97 1130.97V1128.97C939.822 1128.97 934.482 1127.46 932.226 1126.23L931.268 1127.99ZM944.97 1130.97C948.886 1130.97 953.585 1130.76 957.329 1129.43C959.212 1128.76 960.923 1127.78 962.166 1126.35C963.426 1124.9 964.151 1123.04 964.151 1120.72H962.151C962.151 1122.58 961.581 1123.97 960.655 1125.04C959.712 1126.13 958.344 1126.94 956.66 1127.54C953.269 1128.75 948.878 1128.97 944.97 1128.97V1130.97ZM964.151 1120.72C964.151 1116.86 960.943 1114.42 957.104 1112.75C953.194 1111.05 948.133 1109.93 943.527 1108.94L943.108 1110.9C947.757 1111.89 952.613 1112.98 956.306 1114.58C960.07 1116.22 962.151 1118.18 962.151 1120.72H964.151ZM943.529 1108.94C937.651 1107.67 931.012 1106.23 925.829 1103.24C923.255 1101.75 921.081 1099.9 919.55 1097.54C918.024 1095.18 917.1 1092.25 917.1 1088.54H915.1C915.1 1092.6 916.119 1095.91 917.871 1098.62C919.617 1101.32 922.058 1103.37 924.829 1104.97C930.334 1108.15 937.303 1109.64 943.105 1110.9L943.529 1108.94ZM917.1 1088.54C917.1 1081.52 920.743 1076.38 926.281 1072.96C931.853 1069.52 939.315 1067.83 946.733 1067.83V1065.83C939.055 1065.83 931.2 1067.57 925.23 1071.26C919.226 1074.97 915.1 1080.69 915.1 1088.54H917.1ZM946.733 1067.83C954.543 1067.83 961.785 1069.46 967.037 1072.24C972.313 1075.02 975.374 1078.83 975.374 1083.14H977.374C977.374 1077.76 973.548 1073.41 967.971 1070.47C962.368 1067.51 954.79 1065.83 946.733 1065.83V1067.83ZM975.374 1083.14C975.374 1088.07 972.11 1091.84 967.118 1091.84V1093.84C973.366 1093.84 977.374 1089.01 977.374 1083.14H975.374ZM967.118 1091.84C961.729 1091.84 959.193 1088.11 959.193 1085.02H957.193C957.193 1089.2 960.607 1093.84 967.118 1093.84V1091.84ZM959.193 1085.02C959.193 1083.44 959.577 1082.46 960.194 1081.66L958.615 1080.43C957.689 1081.63 957.193 1083.06 957.193 1085.02H959.193ZM959.887 1080.17C957.47 1078.84 953.087 1077.84 946.953 1077.84V1079.84C952.94 1079.84 956.932 1080.83 958.923 1081.92L959.887 1080.17ZM946.953 1077.84C942.338 1077.84 938.082 1078.66 934.941 1080.33C931.774 1082.02 929.645 1084.65 929.645 1088.21H931.645C931.645 1085.6 933.153 1083.55 935.881 1082.1C938.635 1080.63 942.533 1079.84 946.953 1079.84V1077.84ZM929.645 1088.21C929.645 1091.85 932.632 1094.12 936.27 1095.69C939.973 1097.28 944.841 1098.34 949.501 1099.33L949.915 1097.37C945.209 1096.37 940.546 1095.34 937.059 1093.85C933.507 1092.32 931.645 1090.52 931.645 1088.21H929.645ZM949.498 1099.33C955.389 1100.59 962.235 1102.36 967.599 1105.66C972.913 1108.93 976.696 1113.66 976.696 1120.94H978.696C978.696 1112.79 974.38 1107.49 968.648 1103.96C962.965 1100.46 955.817 1098.64 949.918 1097.37L949.498 1099.33ZM976.696 1120.94C976.696 1127.03 973.958 1131.93 968.797 1135.35C963.593 1138.8 955.877 1140.76 945.962 1140.76V1142.76C956.101 1142.76 964.252 1140.76 969.902 1137.02C975.595 1133.25 978.696 1127.73 978.696 1120.94H976.696ZM945.962 1140.76C938.749 1140.76 931.19 1139.3 925.472 1136.55C919.714 1133.79 916.108 1129.89 916.108 1125.12H914.108C914.108 1131.05 918.602 1135.47 924.607 1138.35C930.651 1141.26 938.519 1142.76 945.962 1142.76V1140.76ZM916.108 1125.12C916.108 1122.28 917.092 1120.1 918.603 1118.62C920.12 1117.14 922.23 1116.32 924.585 1116.32V1114.32C921.76 1114.32 919.132 1115.31 917.206 1117.19C915.273 1119.08 914.108 1121.8 914.108 1125.12H916.108ZM924.585 1116.32C927.402 1116.32 929.274 1117.34 930.45 1118.66C931.65 1120 932.18 1121.71 932.18 1123.14H934.18C934.18 1121.26 933.497 1119.07 931.942 1117.32C930.364 1115.56 927.938 1114.32 924.585 1114.32V1116.32Z" fill="black" mask="url(#path-4-outside-2_20_37)"/>
<path d="M647.805 236.671L321.305 318.176C318.187 318.954 316 321.754 316 324.967V348.517C316 353.076 320.289 356.419 324.711 355.305L430.289 328.695C434.711 327.581 439 330.924 439 335.483V517.567C439 520.764 436.834 523.555 433.737 524.348L321.263 553.152C318.166 553.945 316 556.736 316 559.933V583.563C316 588.108 320.264 591.448 324.677 590.36L801.177 472.813C804.303 472.042 806.5 469.237 806.5 466.017V440.929C806.5 436.387 802.24 433.047 797.829 434.132L485.671 510.868C481.26 511.953 477 508.613 477 504.071V322.991C477 319.767 479.202 316.96 482.333 316.193L651.167 274.807C654.298 274.04 656.5 271.233 656.5 268.009V243.462C656.5 238.909 652.222 235.568 647.805 236.671Z" fill="#F24333" stroke="black"/>
<path d="M914.313 288.157L565.813 374.681C562.692 375.456 560.5 378.258 560.5 381.475V405.561C560.5 410.107 564.765 413.447 569.178 412.357L875.822 336.643C880.235 335.553 884.5 338.893 884.5 343.439V524.535C884.5 527.747 882.314 530.547 879.198 531.326L605.802 599.674C602.686 600.453 600.5 603.253 600.5 606.465V709.563C600.5 714.108 604.764 717.448 609.177 716.359L633.677 710.313C636.803 709.542 639 706.737 639 703.517V635.975C639 632.758 641.192 629.956 644.314 629.181L917.686 561.319C920.808 560.544 923 557.742 923 554.525V294.95C923 290.401 918.729 287.061 914.313 288.157Z" fill="#F24333" stroke="black"/>
<path d="M106.832 372.102L237.832 337.319C241.957 336.224 246 339.333 246 343.601V367.525C246 370.512 243.965 373.114 241.066 373.834L110.066 406.358C105.966 407.376 102 404.274 102 400.05V378.384C102 375.437 103.983 372.858 106.832 372.102Z" fill="#064B63" stroke="black"/>
<path d="M750.485 211.7L1134.99 119.555C1139.07 118.575 1143 121.673 1143 125.876V151.473C1143 154.482 1140.93 157.098 1138.01 157.795L753.507 249.458C749.422 250.432 745.5 247.334 745.5 243.135V218.021C745.5 215.014 747.562 212.4 750.485 211.7Z" fill="#064B63" stroke="black"/>
<path d="M971.436 274.668L1136.94 233.638C1141.04 232.622 1145 235.724 1145 239.947V269.919C1145 272.951 1142.9 275.58 1139.95 276.255L974.447 314.058C970.378 314.987 966.5 311.895 966.5 307.721V280.977C966.5 277.989 968.536 275.386 971.436 274.668Z" fill="#064B63" stroke="black"/>
<path d="M107.421 489.158L354.921 427.164C359.024 426.137 363 429.24 363 433.47V456.996C363 459.995 360.948 462.605 358.034 463.313L110.534 523.413C106.442 524.407 102.5 521.307 102.5 517.097V495.463C102.5 492.481 104.528 489.882 107.421 489.158Z" fill="#064B63" stroke="black"/>
<path d="M979.985 390.7L1134.99 353.555C1139.07 352.575 1143 355.673 1143 359.876V385.947C1143 388.967 1140.92 391.59 1137.98 392.277L982.979 428.505C978.902 429.458 975 426.363 975 422.175V397.021C975 394.014 977.062 391.4 979.985 390.7Z" fill="#064B63" stroke="black"/>
<path d="M105.918 605.156L221.418 576.169C225.522 575.139 229.5 578.243 229.5 582.474V606.101C229.5 609.055 227.508 611.637 224.651 612.388L109.151 642.712C105.03 643.794 101 640.685 101 636.425V611.46C101 608.48 103.027 605.881 105.918 605.156Z" fill="#064B63" stroke="black"/>
<path d="M982.969 503.689L1133.97 467.083C1138.06 466.091 1142 469.19 1142 473.4V498.994C1142 501.994 1139.95 504.604 1137.03 505.311L986.031 541.917C981.94 542.909 978 539.81 978 535.6V510.006C978 507.006 980.053 504.396 982.969 503.689Z" fill="#064B63" stroke="black"/>
<path d="M106.902 725.146L508.902 623.196C513.01 622.155 517 625.259 517 629.497V655.56C517 658.532 514.985 661.125 512.105 661.859L110.105 764.291C105.995 765.339 102 762.234 102 757.993V731.446C102 728.472 104.019 725.877 106.902 725.146Z" fill="#064B63" stroke="black"/>
</svg>
