<svg width="607" height="546" viewBox="0 0 607 546" fill="none" xmlns="http://www.w3.org/2000/svg">
<path d="M331.805 64.1707L5.3046 145.676C2.18728 146.454 0 149.254 0 152.467V176.017C0 180.576 4.28946 183.919 8.71072 182.805L114.289 156.195C118.711 155.081 123 158.424 123 162.983V345.067C123 348.264 120.834 351.055 117.737 351.848L5.26336 380.652C2.16619 381.445 0 384.236 0 387.433V411.063C0 415.608 4.26383 418.948 8.67654 417.86L485.177 300.313C488.303 299.542 490.5 296.737 490.5 293.517V268.429C490.5 263.887 486.24 260.547 481.829 261.632L169.671 338.368C165.26 339.453 161 336.113 161 331.571V150.491C161 147.267 163.202 144.46 166.333 143.693L335.167 102.307C338.298 101.54 340.5 98.7327 340.5 95.5086V70.9622C340.5 66.4092 336.222 63.0679 331.805 64.1707Z" fill="#F24333"/>
<path d="M598.313 115.657L249.813 202.181C246.692 202.956 244.5 205.758 244.5 208.975V233.061C244.5 237.607 248.765 240.947 253.178 239.857L559.822 164.143C564.235 163.053 568.5 166.393 568.5 170.939V352.035C568.5 355.247 566.314 358.047 563.198 358.826L289.802 427.174C286.686 427.953 284.5 430.753 284.5 433.965V537.063C284.5 541.608 288.764 544.948 293.177 543.859L317.677 537.813C320.803 537.042 323 534.237 323 531.017V463.475C323 460.258 325.192 457.456 328.314 456.681L601.686 388.819C604.808 388.044 607 385.242 607 382.025V122.45C607 117.901 602.729 114.561 598.313 115.657Z" fill="#F24333"/>
<path opacity="0.6" d="M429 45.5841C429 42.3174 431.259 39.485 434.444 38.7591L595.944 1.94999C600.326 0.951366 604.5 4.28114 604.5 8.77496V34.4004C604.5 37.6742 602.231 40.5107 599.037 41.2296L437.537 77.5786C433.161 78.5636 429 75.2354 429 70.7494V45.5841Z" fill="#C7C1AA"/>
<path opacity="0.6" d="M2 500.056C2 496.802 4.24211 493.977 7.41101 493.239L192.911 450.002C197.301 448.979 201.5 452.311 201.5 456.819V482.957C201.5 486.205 199.266 489.026 196.105 489.771L10.6052 533.473C6.21075 534.508 2 531.174 2 526.659V500.056Z" fill="#C7C1AA"/>
</svg>
