<svg width="850" height="850" viewBox="0 0 850 850" fill="none" xmlns="http://www.w3.org/2000/svg">
<rect width="850" height="850" rx="20" fill="#FEFCF4"/>
<path d="M454.355 210.728L119.305 294.367C116.187 295.146 114 297.946 114 301.159V325.663C114 330.222 118.289 333.565 122.711 332.45L231.378 305.063C235.799 303.948 240.089 307.291 240.089 311.85V498.868C240.089 502.066 237.922 504.856 234.825 505.65L119.263 535.245C116.166 536.038 114 538.829 114 542.026V566.61C114 571.155 118.264 574.495 122.677 573.407L611.494 452.822C614.62 452.05 616.817 449.246 616.817 446.025V419.946C616.817 415.403 612.557 412.064 608.146 413.148L287.714 491.919C283.303 493.003 279.043 489.664 279.043 485.121V299.133C279.043 295.909 281.245 293.102 284.376 292.334L457.717 249.844C460.848 249.076 463.05 246.269 463.05 243.045V217.519C463.05 212.966 458.772 209.625 454.355 210.728Z" fill="#F24333"/>
<path d="M727.556 263.507L369.953 352.291C366.831 353.066 364.64 355.869 364.64 359.085V384.139C364.64 388.684 368.905 392.024 373.318 390.934L688.098 313.211C692.511 312.121 696.776 315.461 696.776 320.007V506.012C696.776 509.224 694.59 512.024 691.473 512.803L410.946 582.935C407.83 583.714 405.644 586.514 405.644 589.726V695.774C405.644 700.319 409.908 703.659 414.321 702.57L439.788 696.286C442.914 695.514 445.111 692.71 445.111 689.49V619.976C445.111 616.76 447.303 613.957 450.424 613.182L730.929 543.55C734.051 542.775 736.242 539.972 736.242 536.756V270.301C736.242 265.751 731.971 262.411 727.556 263.507Z" fill="#F24333"/>
<path opacity="0.6" d="M553.776 191.589C553.776 188.322 556.036 185.489 559.221 184.764L725.128 146.95C729.509 145.951 733.683 149.281 733.683 153.775V180.405C733.683 183.679 731.414 186.515 728.22 187.234L562.313 224.575C557.937 225.56 553.776 222.232 553.776 217.746V191.589Z" fill="#C7C1AA"/>
<path opacity="0.6" d="M116.054 657.473C116.054 654.22 118.296 651.395 121.465 650.656L311.974 606.252C316.365 605.228 320.563 608.561 320.563 613.069V640.224C320.563 643.472 318.33 646.293 315.168 647.038L124.659 691.92C120.264 692.955 116.054 689.621 116.054 685.106V657.473Z" fill="#C7C1AA"/>
</svg>
